<svg width="48" height="52" viewBox="0 0 48 52" fill="none" xmlns="http://www.w3.org/2000/svg">
<g filter="url(#filter0_bd_79_2970)">
<path fill-rule="evenodd" clip-rule="evenodd" d="M16.7394 34.4439L13.1466 36.203C13.0091 36.2715 12.8461 36.2647 12.7148 36.1848C12.5836 36.105 12.5024 35.9634 12.5 35.8098V10.9622C12.5031 10.8089 12.5844 10.6679 12.7156 10.5885C12.8467 10.5091 13.0094 10.5025 13.1466 10.5708L16.7394 12.33C16.8831 12.3999 17.0528 12.3892 17.1867 12.302L20.0788 10.4143C20.2295 10.3163 20.4238 10.3163 20.5745 10.4143L23.433 12.2778C23.5837 12.3758 23.778 12.3758 23.9287 12.2778L26.7873 10.4143C26.938 10.3163 27.1323 10.3163 27.283 10.4143L30.1732 12.302C30.3071 12.3892 30.4768 12.3999 30.6205 12.33L34.2151 10.5708C34.3523 10.5025 34.515 10.5091 34.6462 10.5885C34.7773 10.6679 34.8587 10.8089 34.8618 10.9622V35.8098C34.8587 35.9631 34.7773 36.1041 34.6462 36.1835C34.515 36.2629 34.3523 36.2695 34.2151 36.2011L30.6223 34.442C30.4787 34.3721 30.3089 34.3827 30.1751 34.47L27.283 36.3577C27.1323 36.4557 26.938 36.4557 26.7873 36.3577L23.9287 34.4942C23.778 34.3962 23.5837 34.3962 23.433 34.4942L20.5745 36.3577C20.4238 36.4557 20.2295 36.4557 20.0788 36.3577L17.1885 34.47C17.0539 34.3826 16.8832 34.3727 16.7394 34.4439Z" fill="white"/>
<path fill-rule="evenodd" clip-rule="evenodd" d="M18.0898 20.625H29.2713H18.0898ZM19.9533 26.2156H27.4076H19.9533Z" fill="white"/>
<path d="M18.0898 19.3919C17.4088 19.3919 16.8568 19.944 16.8568 20.625C16.8568 21.306 17.4088 21.8581 18.0898 21.8581V19.3919ZM29.2713 21.8581C29.9523 21.8581 30.5043 21.306 30.5043 20.625C30.5043 19.944 29.9523 19.3919 29.2713 19.3919V21.8581ZM19.9533 24.9825C19.2723 24.9825 18.7202 25.5346 18.7202 26.2156C18.7202 26.8966 19.2723 27.4486 19.9533 27.4486V24.9825ZM27.4076 27.4486C28.0886 27.4486 28.6406 26.8966 28.6406 26.2156C28.6406 25.5346 28.0886 24.9825 27.4076 24.9825V27.4486ZM18.0898 21.8581H29.2713V19.3919H18.0898V21.8581ZM19.9533 27.4486H27.4076V24.9825H19.9533V27.4486Z" fill="#262629"/>
</g>
<defs>
<filter id="filter0_bd_79_2970" x="-12.1611" y="-14.3203" width="71.6854" height="75.413" filterUnits="userSpaceOnUse" color-interpolation-filters="sRGB">
<feFlood flood-opacity="0" result="BackgroundImageFix"/>
<feGaussianBlur in="BackgroundImageFix" stdDeviation="12.3305"/>
<feComposite in2="SourceAlpha" operator="in" result="effect1_backgroundBlur_79_2970"/>
<feColorMatrix in="SourceAlpha" type="matrix" values="0 0 0 0 0 0 0 0 0 0 0 0 0 0 0 0 0 0 127 0" result="hardAlpha"/>
<feOffset dy="2.46611"/>
<feGaussianBlur stdDeviation="6.16527"/>
<feComposite in2="hardAlpha" operator="out"/>
<feColorMatrix type="matrix" values="0 0 0 0 0 0 0 0 0 0 0 0 0 0 0 0 0 0 0.12 0"/>
<feBlend mode="normal" in2="effect1_backgroundBlur_79_2970" result="effect2_dropShadow_79_2970"/>
<feBlend mode="normal" in="SourceGraphic" in2="effect2_dropShadow_79_2970" result="shape"/>
</filter>
</defs>
</svg>
