<svg width="27" height="27" viewBox="0 0 27 27" fill="none" xmlns="http://www.w3.org/2000/svg">
<path fill-rule="evenodd" clip-rule="evenodd" d="M23.2497 21.3385V18.8176C23.2497 18.1934 23.4976 17.5948 23.939 17.1534L25.7217 15.3708C26.6408 14.4516 26.6408 12.9614 25.7217 12.0422L23.939 10.2596C23.4976 9.81821 23.2497 9.21955 23.2497 8.59532V6.07262C23.2497 4.77273 22.1959 3.71897 20.896 3.71897H18.3733C17.7491 3.71896 17.1504 3.47099 16.709 3.02959L14.9264 1.24698C14.0073 0.327831 12.517 0.327831 11.5979 1.24698L9.81526 3.02959C9.37387 3.47099 8.77522 3.71896 8.15099 3.71897H5.62828C5.00373 3.71897 4.40478 3.9672 3.96333 4.409C3.52189 4.8508 3.27413 5.44994 3.27463 6.0745V8.59532C3.27463 9.21955 3.02665 9.81821 2.58525 10.2596L0.802641 12.0422C-0.116505 12.9614 -0.116505 14.4516 0.802641 15.3708L2.58525 17.1534C3.02665 17.5948 3.27463 18.1934 3.27463 18.8176V21.3385C3.27463 22.6384 4.3284 23.6921 5.62828 23.6921H8.15099C8.77522 23.6921 9.37387 23.9401 9.81526 24.3815L11.5979 26.1641C12.517 27.0833 14.0073 27.0833 14.9264 26.1641L16.709 24.3815C17.1504 23.9401 17.7491 23.6921 18.3733 23.6921H20.8941C21.5187 23.6926 22.1178 23.4449 22.5596 23.0034C23.0014 22.562 23.2497 21.963 23.2497 21.3385Z" fill="white"/>
<path fill-rule="evenodd" clip-rule="evenodd" d="M8.15773 11.1539C7.64143 10.6377 7.48696 9.86121 7.76635 9.18665C8.04575 8.51209 8.70398 8.07227 9.43411 8.07227C10.1642 8.07227 10.8225 8.51209 11.1019 9.18665C11.3813 9.86121 11.2268 10.6377 10.7105 11.1539C10.0056 11.8588 8.86268 11.8588 8.15773 11.1539Z" fill="white" stroke="#262629" stroke-width="1.84958" stroke-linecap="round" stroke-linejoin="round"/>
<path fill-rule="evenodd" clip-rule="evenodd" d="M15.814 18.8121C15.2977 18.2959 15.1432 17.5194 15.4226 16.8449C15.702 16.1703 16.3602 15.7305 17.0904 15.7305C17.8205 15.7305 18.4787 16.1703 18.7581 16.8449C19.0375 17.5194 18.883 18.2959 18.3667 18.8121C17.6618 19.517 16.5189 19.517 15.814 18.8121Z" fill="white" stroke="#262629" stroke-width="1.84958" stroke-linecap="round"/>
<path fill-rule="evenodd" clip-rule="evenodd" d="M18.3692 8.59961L8.15625 18.8144L18.3692 8.59961Z" fill="white"/>
<path d="M18.3692 8.59961L8.15625 18.8144" stroke="#262629" stroke-width="1.84958" stroke-linecap="round"/>
</svg>
