<svg width="7" height="28" viewBox="0 0 7 28" fill="none" xmlns="http://www.w3.org/2000/svg">
<path fill-rule="evenodd" clip-rule="evenodd" d="M3.58478 7.0404C1.7547 7.0404 0.271126 5.55682 0.271126 3.72674C0.271126 1.89666 1.7547 0.413086 3.58478 0.413086C5.41486 0.413086 6.89844 1.89666 6.89844 3.72674C6.89844 4.60558 6.54932 5.44842 5.92789 6.06985C5.30646 6.69128 4.46362 7.0404 3.58478 7.0404Z" fill="white"/>
<path fill-rule="evenodd" clip-rule="evenodd" d="M3.58478 17.4545C1.7547 17.4545 0.271126 15.9709 0.271126 14.1408C0.271126 12.3107 1.7547 10.8271 3.58478 10.8271C5.41486 10.8271 6.89844 12.3107 6.89844 14.1408C6.89844 15.9709 5.41486 17.4545 3.58478 17.4545Z" fill="white"/>
<path fill-rule="evenodd" clip-rule="evenodd" d="M3.58478 27.8695C1.7547 27.8695 0.271126 26.3859 0.271126 24.5558C0.271126 22.7258 1.7547 21.2422 3.58478 21.2422C5.41486 21.2422 6.89844 22.7258 6.89844 24.5558C6.89844 26.3859 5.41486 27.8695 3.58478 27.8695Z" fill="white"/>
</svg>
