<svg width="33" height="36" viewBox="0 0 33 36" fill="none" xmlns="http://www.w3.org/2000/svg">
<path d="M10.8506 2.95851C10.3278 2.95851 9.90388 3.38239 9.90388 3.90527C9.90388 4.42815 10.3278 4.85203 10.8506 4.85203V2.95851ZM18.3317 4.85203C18.8546 4.85203 19.2784 4.42815 19.2784 3.90527C19.2784 3.38239 18.8546 2.95851 18.3317 2.95851V4.85203ZM11.1388 30.3089C11.1388 29.786 10.7149 29.3621 10.1921 29.3621C9.66918 29.3621 9.2453 29.786 9.2453 30.3089H11.1388ZM19.94 30.3089C19.94 29.786 19.5162 29.3621 18.9933 29.3621C18.4704 29.3621 18.0465 29.786 18.0465 30.3089H19.94ZM14.5913 7.92307L14.6185 6.97671C14.6007 6.9762 14.5829 6.97619 14.5652 6.97668L14.5913 7.92307ZM25.5796 17.6748L26.5227 17.5913C26.521 17.5726 26.5188 17.554 26.5161 17.5354L25.5796 17.6748ZM26.8998 24.2757L25.9972 24.5614C26.0291 24.6624 26.0778 24.7573 26.1412 24.8421L26.8998 24.2757ZM27.4125 28.4827L28.2301 28.96C28.2508 28.9247 28.2691 28.888 28.2849 28.8503L27.4125 28.4827ZM24.2881 30.3024V31.2492L24.2997 31.249L24.2881 30.3024ZM4.89019 30.3024L4.87853 31.2491H4.89019V30.3024ZM1.76576 28.4827L0.893607 28.8511C0.909417 28.8885 0.927621 28.9249 0.948105 28.96L1.76576 28.4827ZM2.26963 24.2823L3.0299 24.8465C3.09248 24.7622 3.14059 24.6681 3.17227 24.568L2.26963 24.2823ZM3.58981 17.6814L2.6533 17.5425C2.65057 17.5609 2.64838 17.5794 2.64674 17.5979L3.58981 17.6814ZM10.8506 4.85203H18.3317V2.95851H10.8506V4.85203ZM9.2453 30.3089C9.2453 33.2621 11.6394 35.6562 14.5927 35.6562V33.7627C12.6852 33.7627 11.1388 32.2164 11.1388 30.3089H9.2453ZM14.5927 35.6562C17.5459 35.6562 19.94 33.2621 19.94 30.3089H18.0465C18.0465 32.2164 16.5002 33.7627 14.5927 33.7627V35.6562ZM14.5641 8.86944C19.6472 9.01544 23.8943 12.7846 24.6432 17.8143L26.5161 17.5354C25.632 11.5982 20.6187 7.14904 14.6185 6.97671L14.5641 8.86944ZM24.6366 17.7583C24.8411 20.0688 25.2974 22.35 25.9972 24.5614L27.8025 23.9901C27.1442 21.9101 26.7151 19.7645 26.5227 17.5913L24.6366 17.7583ZM26.1412 24.8421C26.8452 25.7851 26.997 27.0306 26.54 28.1151L28.2849 28.8503C29.0028 27.1469 28.7644 25.1906 27.6584 23.7093L26.1412 24.8421ZM26.5948 28.0054C26.1127 28.8314 25.2327 29.3439 24.2764 29.3557L24.2997 31.249C25.9209 31.2291 27.4128 30.3602 28.2301 28.96L26.5948 28.0054ZM24.2881 29.3556H4.89019V31.2491H24.2881V29.3556ZM4.90185 29.3557C3.94556 29.3439 3.06553 28.8314 2.58341 28.0054L0.948105 28.96C1.76544 30.3602 3.25734 31.2291 4.87853 31.249L4.90185 29.3557ZM2.63791 28.1143C2.18094 27.0325 2.33003 25.7896 3.0299 24.8465L1.50935 23.7181C0.410004 25.1995 0.175819 27.1517 0.893607 28.8511L2.63791 28.1143ZM3.17227 24.568C3.87208 22.3566 4.32833 20.0754 4.53288 17.7649L2.64674 17.5979C2.45434 19.7711 2.02521 21.9167 1.36699 23.9967L3.17227 24.568ZM4.52632 17.8203C5.27342 12.7839 9.52784 9.01019 14.6175 8.86947L14.5652 6.97668C8.55722 7.14279 3.5352 11.5973 2.6533 17.5425L4.52632 17.8203Z" fill="white"/>
<circle cx="23.6854" cy="9.20106" r="7.70106" fill="#F93535" stroke="#131510" stroke-width="2.31185"/>
</svg>
