<svg width="62" height="54" viewBox="0 0 62 54" fill="none" xmlns="http://www.w3.org/2000/svg">
<g filter="url(#filter0_bd_79_3005)">
<path d="M15.4013 23.2192C15.4013 19.6633 18.2839 16.7807 21.8397 16.7807H34.7166C38.2725 16.7807 41.1551 19.6633 41.1551 23.2192V32.4169C41.1551 35.9728 38.2725 38.8554 34.7166 38.8554H21.8397C18.2839 38.8554 15.4013 35.9728 15.4013 32.4169V23.2192Z" fill="white"/>
<path fill-rule="evenodd" clip-rule="evenodd" d="M28.2779 12.4118C25.9652 12.4118 24.0903 14.2866 24.0903 16.5993H21.7909C21.7909 13.0166 24.6952 10.1123 28.2779 10.1123C31.8606 10.1123 34.7649 13.0166 34.7649 16.5993H32.4655C32.4655 14.2866 30.5906 12.4118 28.2779 12.4118Z" fill="white"/>
<path fill-rule="evenodd" clip-rule="evenodd" d="M31.8359 25.2458C34.8864 24.8863 37.8661 24.0731 40.6763 22.8333L31.8359 25.2458Z" fill="white"/>
<path fill-rule="evenodd" clip-rule="evenodd" d="M41.0476 23.6748C38.1535 24.9516 35.085 25.789 31.9436 26.1592L31.7283 24.3323C34.6878 23.9835 37.5786 23.1947 40.305 21.9918L41.0476 23.6748Z" fill="#262629"/>
<path fill-rule="evenodd" clip-rule="evenodd" d="M31.8359 25.2458L31.8359 29.0352L31.8359 25.2458Z" fill="white"/>
<path fill-rule="evenodd" clip-rule="evenodd" d="M31.8359 24.326C32.3439 24.326 32.7557 24.7378 32.7557 25.2458V29.0352C32.7557 29.5432 32.3439 29.955 31.8359 29.955C31.3279 29.955 30.9161 29.5432 30.9161 29.0352V25.2458C30.9161 24.7378 31.3279 24.326 31.8359 24.326Z" fill="#262629"/>
<path fill-rule="evenodd" clip-rule="evenodd" d="M40.6763 22.8333C41.318 22.5451 41.9301 22.2403 42.5112 21.9188L40.6763 22.8333Z" fill="white"/>
<path fill-rule="evenodd" clip-rule="evenodd" d="M43.3161 21.4737C43.562 21.9182 43.4009 22.4779 42.9564 22.7237C42.3517 23.0582 41.7174 23.3743 41.0538 23.6723C40.5905 23.8805 40.0461 23.6735 39.8379 23.2102C39.6298 22.7468 39.8367 22.2024 40.3001 21.9943C40.9199 21.7159 41.5084 21.4224 42.0661 21.114C42.5106 20.8681 43.0703 21.0292 43.3161 21.4737Z" fill="#262629"/>
<path fill-rule="evenodd" clip-rule="evenodd" d="M24.7192 25.2458C21.6688 24.8863 18.6891 24.0731 15.8789 22.8333L24.7192 25.2458Z" fill="white"/>
<path fill-rule="evenodd" clip-rule="evenodd" d="M16.2501 21.9918C18.9766 23.1947 21.8674 23.9835 24.8269 24.3323L24.6116 26.1592C21.4701 25.789 18.4016 24.9516 15.5076 23.6748L16.2501 21.9918Z" fill="#262629"/>
<path fill-rule="evenodd" clip-rule="evenodd" d="M28.2699 26.3968C27.0461 26.3858 25.8239 26.3064 24.609 26.1588L24.8308 24.3327C25.9749 24.4717 27.1259 24.5466 28.2783 24.5572C29.4308 24.5472 30.5817 24.4728 31.7259 24.3344L31.9468 26.1606C30.7318 26.3076 29.5096 26.3864 28.2859 26.3968L28.2779 26.3968L28.2699 26.3968Z" fill="#262629"/>
<path fill-rule="evenodd" clip-rule="evenodd" d="M15.8789 22.8333C15.2372 22.5451 14.6261 22.2403 14.0449 21.9189L15.8789 22.8333Z" fill="white"/>
<path fill-rule="evenodd" clip-rule="evenodd" d="M13.2401 21.4737C13.4859 21.0292 14.0456 20.8681 14.4901 21.114C15.0477 21.4224 15.6363 21.7159 16.2561 21.9943C16.7194 22.2024 16.9264 22.7468 16.7182 23.2102C16.5101 23.6736 15.9657 23.8805 15.5023 23.6723C14.8388 23.3743 14.2045 23.0582 13.5998 22.7237C13.1553 22.4779 12.9942 21.9182 13.2401 21.4737Z" fill="#262629"/>
<path fill-rule="evenodd" clip-rule="evenodd" d="M24.7192 25.2458L24.7199 29.0352L24.7192 25.2458Z" fill="white"/>
<path fill-rule="evenodd" clip-rule="evenodd" d="M24.7199 24.326C25.2279 24.326 25.6397 24.7378 25.6397 25.2458V29.0352C25.6397 29.5432 25.2279 29.955 24.7199 29.955C24.2119 29.955 23.8001 29.5432 23.8001 29.0352V25.2458C23.8001 24.7378 24.2119 24.326 24.7199 24.326Z" fill="#262629"/>
<circle cx="40.6728" cy="20.8798" r="8.14607" fill="#F93535" stroke="#262629" stroke-width="1.23305"/>
<path d="M38.5204 19.5285C37.6984 19.101 37.2873 18.4393 37.2873 17.5433C37.2873 17.0994 37.3983 16.6966 37.6203 16.3349C37.8504 15.965 38.1916 15.6731 38.6437 15.4594C39.104 15.2375 39.663 15.1265 40.3207 15.1265C40.9783 15.1265 41.5332 15.2375 41.9853 15.4594C42.4456 15.6731 42.7868 15.965 43.0087 16.3349C43.2389 16.6966 43.354 17.0994 43.354 17.5433C43.354 17.9954 43.243 18.3941 43.021 18.7393C42.7991 19.0764 42.5032 19.3394 42.1332 19.5285C42.5854 19.7258 42.9388 20.0135 43.1937 20.3916C43.4485 20.7698 43.5759 21.2178 43.5759 21.7357C43.5759 22.2946 43.4321 22.7838 43.1443 23.203C42.8649 23.614 42.4785 23.9305 41.9853 24.1524C41.4921 24.3744 40.9372 24.4854 40.3207 24.4854C39.7041 24.4854 39.1493 24.3744 38.656 24.1524C38.171 23.9305 37.7847 23.614 37.497 23.203C37.2175 22.7838 37.0777 22.2946 37.0777 21.7357C37.0777 21.2178 37.2051 20.7698 37.46 20.3916C37.7148 20.0053 38.0683 19.7176 38.5204 19.5285ZM41.677 17.7899C41.677 17.3871 41.5537 17.0747 41.3071 16.8528C41.0687 16.6308 40.7399 16.5198 40.3207 16.5198C39.9096 16.5198 39.5808 16.6308 39.3342 16.8528C39.0958 17.0747 38.9766 17.3912 38.9766 17.8022C38.9766 18.1721 39.0999 18.4681 39.3465 18.69C39.6014 18.912 39.9261 19.0229 40.3207 19.0229C40.7152 19.0229 41.0399 18.912 41.2948 18.69C41.5496 18.4599 41.677 18.1598 41.677 17.7899ZM40.3207 20.2807C39.8521 20.2807 39.4698 20.3999 39.1739 20.6382C38.8862 20.8766 38.7423 21.2178 38.7423 21.6617C38.7423 22.0727 38.8821 22.4097 39.1616 22.6728C39.4493 22.9276 39.8357 23.055 40.3207 23.055C40.8057 23.055 41.1879 22.9235 41.4674 22.6605C41.7469 22.3974 41.8866 22.0645 41.8866 21.6617C41.8866 21.226 41.7428 20.889 41.4551 20.6506C41.1674 20.404 40.7892 20.2807 40.3207 20.2807Z" fill="white"/>
</g>
<defs>
<filter id="filter0_bd_79_3005" x="-11.5361" y="-14.5488" width="85.6308" height="78.0653" filterUnits="userSpaceOnUse" color-interpolation-filters="sRGB">
<feFlood flood-opacity="0" result="BackgroundImageFix"/>
<feGaussianBlur in="BackgroundImageFix" stdDeviation="12.3305"/>
<feComposite in2="SourceAlpha" operator="in" result="effect1_backgroundBlur_79_3005"/>
<feColorMatrix in="SourceAlpha" type="matrix" values="0 0 0 0 0 0 0 0 0 0 0 0 0 0 0 0 0 0 127 0" result="hardAlpha"/>
<feOffset dy="2.46611"/>
<feGaussianBlur stdDeviation="6.16527"/>
<feComposite in2="hardAlpha" operator="out"/>
<feColorMatrix type="matrix" values="0 0 0 0 0 0 0 0 0 0 0 0 0 0 0 0 0 0 0.12 0"/>
<feBlend mode="normal" in2="effect1_backgroundBlur_79_3005" result="effect2_dropShadow_79_3005"/>
<feBlend mode="normal" in="SourceGraphic" in2="effect2_dropShadow_79_3005" result="shape"/>
</filter>
</defs>
</svg>
