<svg width="47" height="51" viewBox="0 0 47 51" fill="none" xmlns="http://www.w3.org/2000/svg">
<g filter="url(#filter0_bd_79_2920)">
<path fill-rule="evenodd" clip-rule="evenodd" d="M13.0713 30.4229C13.0149 33.535 15.4909 36.1042 18.603 36.1628H28.3578C31.4699 36.1042 33.9458 33.535 33.8895 30.4229L33.2396 23.4518C33.0747 20.8237 31.2356 18.601 28.6849 17.9469C28.1534 17.7922 27.6028 17.7132 27.0492 17.7119H19.9115C19.358 17.7132 18.8073 17.7922 18.2758 17.9469C15.7267 18.6012 13.8886 20.8223 13.7226 23.4488L13.0713 30.4229Z" fill="white"/>
<path d="M28.6825 20.3821V17.3768C28.6264 14.5577 26.2972 12.317 23.478 12.3701C20.6588 12.317 18.3296 14.5577 18.2734 17.3768V20.3806" stroke="white" stroke-width="3.08264" stroke-linecap="round" stroke-linejoin="round"/>
</g>
<defs>
<filter id="filter0_bd_79_2920" x="-11.5908" y="-13.833" width="70.1425" height="74.6571" filterUnits="userSpaceOnUse" color-interpolation-filters="sRGB">
<feFlood flood-opacity="0" result="BackgroundImageFix"/>
<feGaussianBlur in="BackgroundImageFix" stdDeviation="12.3305"/>
<feComposite in2="SourceAlpha" operator="in" result="effect1_backgroundBlur_79_2920"/>
<feColorMatrix in="SourceAlpha" type="matrix" values="0 0 0 0 0 0 0 0 0 0 0 0 0 0 0 0 0 0 127 0" result="hardAlpha"/>
<feOffset dy="2.46611"/>
<feGaussianBlur stdDeviation="6.16527"/>
<feComposite in2="hardAlpha" operator="out"/>
<feColorMatrix type="matrix" values="0 0 0 0 0 0 0 0 0 0 0 0 0 0 0 0 0 0 0.12 0"/>
<feBlend mode="normal" in2="effect1_backgroundBlur_79_2920" result="effect2_dropShadow_79_2920"/>
<feBlend mode="normal" in="SourceGraphic" in2="effect2_dropShadow_79_2920" result="shape"/>
</filter>
</defs>
</svg>
