<svg width="26" height="27" viewBox="0 0 26 27" fill="none" xmlns="http://www.w3.org/2000/svg">
<path d="M10.9364 6.42849C10.9364 7.50133 10.9364 8.57417 10.9364 9.64701C10.9364 10.9975 10.0749 11.859 8.72291 11.8604C6.57724 11.8604 4.43156 11.8604 2.28588 11.8604C0.935359 11.8604 0.0738665 10.999 0.0724449 9.64701C0.0710233 7.50133 0.0703125 5.35565 0.0703125 3.20998C0.0703125 1.85661 0.931805 0.995117 2.28517 0.995117C4.43132 0.995117 6.577 0.995117 8.7222 0.995117C10.0727 0.995117 10.9328 1.85519 10.9356 3.20856C10.9375 4.28234 10.9378 5.35565 10.9364 6.42849Z" fill="white"/>
<path d="M19.1234 11.861C18.051 11.861 16.9782 11.861 15.9048 11.861C14.5543 11.861 13.6921 10.9995 13.6914 9.64754C13.6914 7.50186 13.6914 5.35619 13.6914 3.21051C13.6914 1.85998 14.5515 0.998492 15.9041 0.99707C18.0503 0.99707 20.196 0.99707 22.3412 0.99707C23.6917 0.99707 24.5539 1.85714 24.5546 3.2098C24.5546 5.35595 24.5546 7.50163 24.5546 9.64683C24.5546 10.9974 23.6938 11.8581 22.3419 11.861C21.269 11.8624 20.1962 11.8624 19.1234 11.861Z" fill="white"/>
<path d="M10.9364 20.0442C10.9364 21.1165 10.9364 22.1894 10.9364 23.2627C10.9364 24.6182 10.0784 25.4804 8.7286 25.4818C6.5834 25.4818 4.43772 25.4818 2.29157 25.4818C0.93607 25.4797 0.0703125 24.6217 0.0703125 23.2733C0.0703125 21.1272 0.0703125 18.9815 0.0703125 16.8363C0.0703125 15.4801 0.928251 14.6186 2.27736 14.6172C4.42303 14.6172 6.56871 14.6172 8.71439 14.6172C10.0813 14.6172 10.9328 15.4758 10.9342 16.8505C10.9366 17.9144 10.9373 18.9789 10.9364 20.0442Z" fill="white"/>
<path d="M18.9772 26.0256C18.5217 26.0056 18.0904 25.8151 17.7689 25.4918C16.4041 24.1413 15.0387 22.7829 13.691 21.4111C13.3336 21.0439 13.1346 20.5511 13.1367 20.0387C13.1389 19.5263 13.342 19.0352 13.7024 18.671C15.0392 17.3114 16.3852 15.964 17.7404 14.6286C18.1071 14.2639 18.6029 14.0587 19.12 14.0576C19.6371 14.0566 20.1338 14.2597 20.5019 14.6229C21.8595 15.9588 23.2067 17.306 24.5435 18.6646C24.9087 19.0308 25.1143 19.5266 25.1153 20.0438C25.1164 20.561 24.9129 21.0576 24.5492 21.4253C23.2136 22.7837 21.861 24.1264 20.509 25.4691C20.1202 25.8558 19.6376 26.0327 18.9772 26.0256Z" fill="white"/>
</svg>
