<svg width="57" height="54" viewBox="0 0 57 54" fill="none" xmlns="http://www.w3.org/2000/svg">
<g filter="url(#filter0_bd_79_2954)">
<path d="M37.5447 34.537C37.5447 33.6858 36.8546 32.9957 36.0034 32.9957C35.1521 32.9957 34.4621 33.6858 34.4621 34.537H37.5447ZM34.4621 35.9579C34.4621 36.8092 35.1521 37.4992 36.0034 37.4992C36.8546 37.4992 37.5447 36.8092 37.5447 35.9579H34.4621ZM34.4621 34.537C34.4621 35.3882 35.1521 36.0783 36.0034 36.0783C36.8546 36.0783 37.5447 35.3882 37.5447 34.537H34.4621ZM37.5447 18.9072C37.5447 18.0559 36.8546 17.3659 36.0034 17.3659C35.1521 17.3659 34.4621 18.0559 34.4621 18.9072H37.5447ZM16.2562 30.2743C16.2562 29.4231 15.5661 28.733 14.7148 28.733C13.8636 28.733 13.1735 29.4231 13.1735 30.2743H16.2562ZM13.1735 31.6952C13.1735 32.5465 13.8636 33.2365 14.7148 33.2365C15.5661 33.2365 16.2562 32.5465 16.2562 31.6952H13.1735ZM13.1735 30.2743C13.1735 31.1256 13.8636 31.8156 14.7148 31.8156C15.5661 31.8156 16.2562 31.1256 16.2562 30.2743H13.1735ZM16.2562 23.1699C16.2562 22.3186 15.5661 21.6286 14.7148 21.6286C13.8636 21.6286 13.1735 22.3186 13.1735 23.1699H16.2562ZM34.4621 18.9072C34.4621 19.7585 35.1521 20.4485 36.0034 20.4485C36.8546 20.4485 37.5447 19.7585 37.5447 18.9072H34.4621ZM37.5447 17.4863C37.5447 16.6351 36.8546 15.945 36.0034 15.945C35.1521 15.945 34.4621 16.6351 34.4621 17.4863H37.5447ZM13.1735 23.1699C13.1735 24.0212 13.8636 24.7112 14.7148 24.7112C15.5661 24.7112 16.2562 24.0212 16.2562 23.1699H13.1735ZM16.2562 21.749C16.2562 20.8978 15.5661 20.2077 14.7148 20.2077C13.8636 20.2077 13.1735 20.8978 13.1735 21.749H16.2562ZM22.5472 32.1439C22.5472 31.2927 21.8572 30.6026 21.0059 30.6026C20.1547 30.6026 19.4646 31.2927 19.4646 32.1439H22.5472ZM21.0059 33.3876L22.5431 33.5002C22.5459 33.4627 22.5472 33.4252 22.5472 33.3876H21.0059ZM24.14 37.0298L24.0101 38.5657C24.0953 38.5729 24.181 38.573 24.2662 38.566L24.14 37.0298ZM28.8134 33.3976C28.77 32.5474 28.0457 31.8934 27.1955 31.9369C26.3454 31.9803 25.6914 32.7046 25.7348 33.5548L28.8134 33.3976ZM34.4621 34.537V35.9579H37.5447V34.537H34.4621ZM37.5447 34.537V18.9072H34.4621V34.537H37.5447ZM13.1735 30.2743V31.6952H16.2562V30.2743H13.1735ZM16.2562 30.2743V23.1699H13.1735V30.2743H16.2562ZM37.5447 18.9072V17.4863H34.4621V18.9072H37.5447ZM16.2562 23.1699V21.749H13.1735V23.1699H16.2562ZM19.4646 32.1439V33.3876H22.5472V32.1439H19.4646ZM19.4687 33.2749C19.2699 35.9888 21.3064 38.337 24.0101 38.5657L24.2699 35.494C23.2266 35.4057 22.4693 34.5071 22.5431 33.5002L19.4687 33.2749ZM24.2662 38.566C26.9255 38.3475 28.9499 36.0697 28.8134 33.3976L25.7348 33.5548C25.7852 34.5418 25.0353 35.4097 24.0138 35.4937L24.2662 38.566Z" fill="white"/>
<path d="M35.3065 17.4863L15.4141 21.6742V31.795L35.3065 35.9828V17.4863Z" fill="white"/>
<circle cx="35.4657" cy="18.7509" r="8.14607" fill="#F93535" stroke="#262629" stroke-width="1.23305"/>
<path d="M33.0699 19.9522C33.8591 19.2945 34.4879 18.7479 34.9565 18.3122C35.425 17.8683 35.8155 17.408 36.1279 16.9312C36.4403 16.4544 36.5964 15.9858 36.5964 15.5255C36.5964 15.1063 36.4978 14.7774 36.3005 14.5391C36.1032 14.3007 35.7991 14.1815 35.3881 14.1815C34.977 14.1815 34.6606 14.3212 34.4386 14.6007C34.2167 14.872 34.1016 15.246 34.0933 15.7228H32.4164C32.4493 14.7363 32.7411 13.9883 33.2919 13.4786C33.8508 12.969 34.5578 12.7141 35.4127 12.7141C36.3498 12.7141 37.0691 12.9649 37.5706 13.4663C38.072 13.9595 38.3227 14.613 38.3227 15.4269C38.3227 16.068 38.1501 16.6805 37.8048 17.2641C37.4596 17.8478 37.065 18.3574 36.6211 18.7931C36.1772 19.2206 35.5977 19.7384 34.8825 20.3467H38.52V21.7771H32.4287V20.4947L33.0699 19.9522Z" fill="white"/>
</g>
<defs>
<filter id="filter0_bd_79_2954" x="-11.4892" y="-14.6728" width="80.3769" height="77.9052" filterUnits="userSpaceOnUse" color-interpolation-filters="sRGB">
<feFlood flood-opacity="0" result="BackgroundImageFix"/>
<feGaussianBlur in="BackgroundImageFix" stdDeviation="12.3305"/>
<feComposite in2="SourceAlpha" operator="in" result="effect1_backgroundBlur_79_2954"/>
<feColorMatrix in="SourceAlpha" type="matrix" values="0 0 0 0 0 0 0 0 0 0 0 0 0 0 0 0 0 0 127 0" result="hardAlpha"/>
<feOffset dy="2.46611"/>
<feGaussianBlur stdDeviation="6.16527"/>
<feComposite in2="hardAlpha" operator="out"/>
<feColorMatrix type="matrix" values="0 0 0 0 0 0 0 0 0 0 0 0 0 0 0 0 0 0 0.12 0"/>
<feBlend mode="normal" in2="effect1_backgroundBlur_79_2954" result="effect2_dropShadow_79_2954"/>
<feBlend mode="normal" in="SourceGraphic" in2="effect2_dropShadow_79_2954" result="shape"/>
</filter>
</defs>
</svg>
