<svg width="54" height="63" viewBox="0 0 54 63" fill="none" xmlns="http://www.w3.org/2000/svg">
<g filter="url(#filter0_bd_79_2940)">
<path fill-rule="evenodd" clip-rule="evenodd" d="M31.4421 22.6865H19.2407C15.6 22.7844 12.7263 25.8122 12.8186 29.453V37.6701C12.7263 41.3109 15.6 44.3387 19.2407 44.4366H31.4421C35.0828 44.3387 37.9565 41.3109 37.8642 37.6701V29.453C37.9565 25.8122 35.0828 22.7844 31.4421 22.6865V22.6865Z" fill="white"/>
<path d="M17.5368 22.8166C17.5368 23.6678 18.2269 24.3579 19.0782 24.3579C19.9294 24.3579 20.6195 23.6678 20.6195 22.8166H17.5368ZM19.0782 14.7559H20.6195L20.6195 14.7489L19.0782 14.7559ZM22.931 11.5479V10.0065L22.9255 10.0065L22.931 11.5479ZM27.748 11.5479L27.7535 10.0065H27.748V11.5479ZM31.6008 14.7559L30.0595 14.7489V14.7559H31.6008ZM30.0595 22.8183C30.0595 23.6696 30.7496 24.3596 31.6008 24.3596C32.4521 24.3596 33.1421 23.6696 33.1421 22.8183H30.0595ZM30.0618 46.6116C30.0618 47.4628 30.7518 48.1529 31.6031 48.1529C32.4543 48.1529 33.1444 47.4628 33.1444 46.6116H30.0618ZM33.1444 44.4368C33.1444 43.5855 32.4543 42.8954 31.6031 42.8954C30.7518 42.8954 30.0618 43.5855 30.0618 44.4368H33.1444ZM17.539 46.6116C17.539 47.4628 18.2291 48.1529 19.0804 48.1529C19.9316 48.1529 20.6217 47.4628 20.6217 46.6116H17.539ZM20.6217 44.4368C20.6217 43.5855 19.9316 42.8954 19.0804 42.8954C18.2291 42.8954 17.539 43.5855 17.539 44.4368H20.6217ZM20.6195 22.8166V14.7559H17.5368V22.8166H20.6195ZM20.6195 14.7489C20.6165 14.0993 21.3627 13.0948 22.9364 13.0892L22.9255 10.0065C20.2267 10.0161 17.5237 11.8836 17.5369 14.763L20.6195 14.7489ZM22.931 13.0892H27.748V10.0065H22.931V13.0892ZM27.7425 13.0892C29.3163 13.0948 30.0625 14.0993 30.0595 14.7489L33.1421 14.763C33.1553 11.8836 30.4523 10.0161 27.7535 10.0065L27.7425 13.0892ZM30.0595 14.7559V22.8183H33.1421V14.7559H30.0595ZM33.1444 46.6116V44.4368H30.0618V46.6116H33.1444ZM20.6217 46.6116V44.4368H17.539V46.6116H20.6217Z" fill="white"/>
<path d="M19.8594 30.175H30.4255" stroke="#262629" stroke-width="2.46611" stroke-linecap="round"/>
<path d="M19.8594 37.2199H30.4255" stroke="#262629" stroke-width="2.46611" stroke-linecap="round"/>
<circle cx="32.8485" cy="21.8915" r="8.14607" fill="#F93535" stroke="#262629" stroke-width="1.23305"/>
<path d="M30.4527 23.0928C31.2419 22.4352 31.8707 21.8885 32.3393 21.4528C32.8079 21.0089 33.1983 20.5486 33.5107 20.0718C33.8231 19.595 33.9793 19.1265 33.9793 18.6661C33.9793 18.2469 33.8806 17.9181 33.6833 17.6797C33.486 17.4413 33.1819 17.3221 32.7709 17.3221C32.3598 17.3221 32.0434 17.4618 31.8214 17.7413C31.5995 18.0126 31.4844 18.3866 31.4762 18.8634H29.7992C29.8321 17.877 30.1239 17.1289 30.6747 16.6193C31.2337 16.1096 31.9406 15.8548 32.7955 15.8548C33.7326 15.8548 34.4519 16.1055 34.9534 16.6069C35.4548 17.1001 35.7055 17.7537 35.7055 18.5675C35.7055 19.2087 35.5329 19.8211 35.1877 20.4047C34.8424 20.9884 34.4478 21.498 34.0039 21.9337C33.56 22.3612 32.9805 22.8791 32.2653 23.4874H35.9028V24.9177H29.8115V23.6353L30.4527 23.0928Z" fill="white"/>
</g>
<defs>
<filter id="filter0_bd_79_2940" x="-11.8447" y="-14.6542" width="78.1151" height="87.4686" filterUnits="userSpaceOnUse" color-interpolation-filters="sRGB">
<feFlood flood-opacity="0" result="BackgroundImageFix"/>
<feGaussianBlur in="BackgroundImageFix" stdDeviation="12.3305"/>
<feComposite in2="SourceAlpha" operator="in" result="effect1_backgroundBlur_79_2940"/>
<feColorMatrix in="SourceAlpha" type="matrix" values="0 0 0 0 0 0 0 0 0 0 0 0 0 0 0 0 0 0 127 0" result="hardAlpha"/>
<feOffset dy="2.46611"/>
<feGaussianBlur stdDeviation="6.16527"/>
<feComposite in2="hardAlpha" operator="out"/>
<feColorMatrix type="matrix" values="0 0 0 0 0 0 0 0 0 0 0 0 0 0 0 0 0 0 0.12 0"/>
<feBlend mode="normal" in2="effect1_backgroundBlur_79_2940" result="effect2_dropShadow_79_2940"/>
<feBlend mode="normal" in="SourceGraphic" in2="effect2_dropShadow_79_2940" result="shape"/>
</filter>
</defs>
</svg>
