<svg width="28" height="27" viewBox="0 0 28 27" fill="none" xmlns="http://www.w3.org/2000/svg">
<path d="M1.99219 12.1749C1.20787 12.1749 0.572049 12.8107 0.572049 13.595C0.572049 14.3794 1.20787 15.0152 1.99219 15.0152V12.1749ZM13.8267 15.0152C14.611 15.0152 15.2468 14.3794 15.2468 13.595C15.2468 12.8107 14.611 12.1749 13.8267 12.1749V15.0152ZM13.8267 12.1749C13.0424 12.1749 12.4065 12.8107 12.4065 13.595C12.4065 14.3794 13.0424 15.0152 13.8267 15.0152V12.1749ZM25.6612 15.0152C26.4455 15.0152 27.0813 14.3794 27.0813 13.595C27.0813 12.8107 26.4455 12.1749 25.6612 12.1749V15.0152ZM15.2476 13.5943C15.2476 12.8099 14.6117 12.1741 13.8274 12.1741C13.0431 12.1741 12.4073 12.8099 12.4073 13.5943H15.2476ZM12.4073 25.4287C12.4073 26.2131 13.0431 26.8489 13.8274 26.8489C14.6117 26.8489 15.2476 26.2131 15.2476 25.4287H12.4073ZM12.4073 13.5942C12.4073 14.3786 13.0431 15.0144 13.8274 15.0144C14.6117 15.0144 15.2476 14.3786 15.2476 13.5942H12.4073ZM15.2476 1.75977C15.2476 0.975445 14.6117 0.339628 13.8274 0.339628C13.0431 0.339628 12.4073 0.975445 12.4073 1.75977H15.2476ZM1.99219 15.0152H13.8267V12.1749H1.99219V15.0152ZM13.8267 15.0152H25.6612V12.1749H13.8267V15.0152ZM13.8274 13.5943H12.4073C12.4073 13.5943 12.4073 13.5943 12.4073 13.5943C12.4073 13.5943 12.4073 13.5943 12.4073 13.5943C12.4073 13.5943 12.4073 13.5943 12.4073 13.5943C12.4073 13.5943 12.4073 13.5943 12.4073 13.5943C12.4073 13.5943 12.4073 13.5943 12.4073 13.5943C12.4073 13.5943 12.4073 13.5943 12.4073 13.5943C12.4073 13.5943 12.4073 13.5943 12.4073 13.5943C12.4073 13.5943 12.4073 13.5943 12.4073 13.5943C12.4073 13.5943 12.4073 13.5944 12.4073 13.5944C12.4073 13.5944 12.4073 13.5944 12.4073 13.5944C12.4073 13.5944 12.4073 13.5944 12.4073 13.5944C12.4073 13.5945 12.4073 13.5945 12.4073 13.5945C12.4073 13.5945 12.4073 13.5945 12.4073 13.5945C12.4073 13.5946 12.4073 13.5946 12.4073 13.5946C12.4073 13.5946 12.4073 13.5947 12.4073 13.5947C12.4073 13.5947 12.4073 13.5947 12.4073 13.5948C12.4073 13.5948 12.4073 13.5948 12.4073 13.5949C12.4073 13.5949 12.4073 13.5949 12.4073 13.595C12.4073 13.595 12.4073 13.595 12.4073 13.5951C12.4073 13.5951 12.4073 13.5951 12.4073 13.5952C12.4073 13.5952 12.4073 13.5953 12.4073 13.5953C12.4073 13.5954 12.4073 13.5954 12.4073 13.5955C12.4073 13.5955 12.4073 13.5956 12.4073 13.5956C12.4073 13.5957 12.4073 13.5957 12.4073 13.5958C12.4073 13.5959 12.4073 13.5959 12.4073 13.596C12.4073 13.5961 12.4073 13.5961 12.4073 13.5962C12.4073 13.5963 12.4073 13.5963 12.4073 13.5964C12.4073 13.5965 12.4073 13.5966 12.4073 13.5966C12.4073 13.5967 12.4073 13.5968 12.4073 13.5969C12.4073 13.597 12.4073 13.597 12.4073 13.5971C12.4073 13.5972 12.4073 13.5973 12.4073 13.5974C12.4073 13.5975 12.4073 13.5976 12.4073 13.5977C12.4073 13.5978 12.4073 13.5979 12.4073 13.598C12.4073 13.5981 12.4073 13.5982 12.4073 13.5984C12.4073 13.5985 12.4073 13.5986 12.4073 13.5987C12.4073 13.5988 12.4073 13.599 12.4073 13.5991C12.4073 13.5992 12.4073 13.5993 12.4073 13.5995C12.4073 13.5996 12.4073 13.5998 12.4073 13.5999C12.4073 13.6 12.4073 13.6002 12.4073 13.6003C12.4073 13.6005 12.4073 13.6006 12.4073 13.6008C12.4073 13.6009 12.4073 13.6011 12.4073 13.6013C12.4073 13.6014 12.4073 13.6016 12.4073 13.6018C12.4073 13.6019 12.4073 13.6021 12.4073 13.6023C12.4073 13.6025 12.4073 13.6026 12.4073 13.6028C12.4073 13.603 12.4073 13.6032 12.4073 13.6034C12.4073 13.6036 12.4073 13.6038 12.4073 13.604C12.4073 13.6042 12.4073 13.6044 12.4073 13.6046C12.4073 13.6048 12.4073 13.6051 12.4073 13.6053C12.4073 13.6055 12.4073 13.6057 12.4073 13.6059C12.4073 13.6062 12.4073 13.6064 12.4073 13.6066C12.4073 13.6069 12.4073 13.6071 12.4073 13.6074C12.4073 13.6076 12.4073 13.6079 12.4073 13.6081C12.4073 13.6084 12.4073 13.6087 12.4073 13.6089C12.4073 13.6092 12.4073 13.6095 12.4073 13.6097C12.4073 13.61 12.4073 13.6103 12.4073 13.6106C12.4073 13.6109 12.4073 13.6112 12.4073 13.6115C12.4073 13.6118 12.4073 13.6121 12.4073 13.6124C12.4073 13.6127 12.4073 13.613 12.4073 13.6133C12.4073 13.6136 12.4073 13.6139 12.4073 13.6143C12.4073 13.6146 12.4073 13.6149 12.4073 13.6153C12.4073 13.6156 12.4073 13.6159 12.4073 13.6163C12.4073 13.6166 12.4073 13.617 12.4073 13.6174C12.4073 13.6177 12.4073 13.6181 12.4073 13.6185C12.4073 13.6188 12.4073 13.6192 12.4073 13.6196C12.4073 13.62 12.4073 13.6204 12.4073 13.6208C12.4073 13.6212 12.4073 13.6216 12.4073 13.622C12.4073 13.6224 12.4073 13.6228 12.4073 13.6232C12.4073 13.6236 12.4073 13.6241 12.4073 13.6245C12.4073 13.6249 12.4073 13.6254 12.4073 13.6258C12.4073 13.6263 12.4073 13.6267 12.4073 13.6272C12.4073 13.6276 12.4073 13.6281 12.4073 13.6286C12.4073 13.629 12.4073 13.6295 12.4073 13.63C12.4073 13.6305 12.4073 13.631 12.4073 13.6314C12.4073 13.6319 12.4073 13.6324 12.4073 13.633C12.4073 13.6335 12.4073 13.634 12.4073 13.6345C12.4073 13.635 12.4073 13.6356 12.4073 13.6361C12.4073 13.6366 12.4073 13.6372 12.4073 13.6377C12.4073 13.6383 12.4073 13.6388 12.4073 13.6394C12.4073 13.64 12.4073 13.6405 12.4073 13.6411C12.4073 13.6417 12.4073 13.6423 12.4073 13.6429C12.4073 13.6435 12.4073 13.6441 12.4073 13.6447C12.4073 13.6453 12.4073 13.6459 12.4073 13.6465C12.4073 13.6471 12.4073 13.6478 12.4073 13.6484C12.4073 13.649 12.4073 13.6497 12.4073 13.6503C12.4073 13.651 12.4073 13.6516 12.4073 13.6523C12.4073 13.653 12.4073 13.6537 12.4073 13.6543C12.4073 13.655 12.4073 13.6557 12.4073 13.6564C12.4073 13.6571 12.4073 13.6578 12.4073 13.6585C12.4073 13.6592 12.4073 13.66 12.4073 13.6607C12.4073 13.6614 12.4073 13.6622 12.4073 13.6629C12.4073 13.6637 12.4073 13.6644 12.4073 13.6652C12.4073 13.6659 12.4073 13.6667 12.4073 13.6675C12.4073 13.6683 12.4073 13.6691 12.4073 13.6698C12.4073 13.6706 12.4073 13.6714 12.4073 13.6723C12.4073 13.6731 12.4073 13.6739 12.4073 13.6747C12.4073 13.6756 12.4073 13.6764 12.4073 13.6772C12.4073 13.6781 12.4073 13.6789 12.4073 13.6798C12.4073 13.6807 12.4073 13.6815 12.4073 13.6824C12.4073 13.6833 12.4073 13.6842 12.4073 13.6851C12.4073 13.686 12.4073 13.6869 12.4073 13.6878C12.4073 13.6887 12.4073 13.6897 12.4073 13.6906C12.4073 13.6915 12.4073 13.6925 12.4073 13.6934C12.4073 13.6944 12.4073 13.6954 12.4073 13.6963C12.4073 13.6973 12.4073 13.6983 12.4073 13.6993C12.4073 13.7003 12.4073 13.7013 12.4073 13.7023C12.4073 13.7033 12.4073 13.7043 12.4073 13.7053C12.4073 13.7064 12.4073 13.7074 12.4073 13.7084C12.4073 13.7095 12.4073 13.7105 12.4073 13.7116C12.4073 13.7127 12.4073 13.7138 12.4073 13.7148C12.4073 13.7159 12.4073 13.717 12.4073 13.7181C12.4073 13.7192 12.4073 13.7204 12.4073 13.7215C12.4073 13.7226 12.4073 13.7237 12.4073 13.7249C12.4073 13.726 12.4073 13.7272 12.4073 13.7284C12.4073 13.7295 12.4073 13.7307 12.4073 13.7319C12.4073 13.7331 12.4073 13.7343 12.4073 13.7355C12.4073 13.7367 12.4073 13.7379 12.4073 13.7391C12.4073 13.7404 12.4073 13.7416 12.4073 13.7428C12.4073 13.7441 12.4073 13.7453 12.4073 13.7466C12.4073 13.7479 12.4073 13.7492 12.4073 13.7505C12.4073 13.7517 12.4073 13.753 12.4073 13.7544C12.4073 13.7557 12.4073 13.757 12.4073 13.7583C12.4073 13.7597 12.4073 13.761 12.4073 13.7624C12.4073 13.7637 12.4073 13.7651 12.4073 13.7665C12.4073 13.7678 12.4073 13.7692 12.4073 13.7706C12.4073 13.772 12.4073 13.7734 12.4073 13.7749C12.4073 13.7763 12.4073 13.7777 12.4073 13.7792C12.4073 13.7806 12.4073 13.7821 12.4073 13.7835C12.4073 13.785 12.4073 13.7865 12.4073 13.788C12.4073 13.7895 12.4073 13.791 12.4073 13.7925C12.4073 13.794 12.4073 13.7955 12.4073 13.797C12.4073 13.7986 12.4073 13.8001 12.4073 13.8017C12.4073 13.8033 12.4073 13.8048 12.4073 13.8064C12.4073 13.808 12.4073 13.8096 12.4073 13.8112C12.4073 13.8128 12.4073 13.8144 12.4073 13.816C12.4073 13.8177 12.4073 13.8193 12.4073 13.821C12.4073 13.8226 12.4073 13.8243 12.4073 13.826C12.4073 13.8277 12.4073 13.8293 12.4073 13.8311C12.4073 13.8328 12.4073 13.8345 12.4073 13.8362C12.4073 13.8379 12.4073 13.8397 12.4073 13.8414C12.4073 13.8432 12.4073 13.8449 12.4073 13.8467C12.4073 13.8485 12.4073 13.8503 12.4073 13.8521C12.4073 13.8539 12.4073 13.8557 12.4073 13.8575C12.4073 13.8594 12.4073 13.8612 12.4073 13.8631C12.4073 13.8649 12.4073 13.8668 12.4073 13.8687C12.4073 13.8705 12.4073 13.8724 12.4073 13.8743C12.4073 13.8762 12.4073 13.8782 12.4073 13.8801C12.4073 13.882 12.4073 13.884 12.4073 13.8859C12.4073 13.8879 12.4073 13.8899 12.4073 13.8918C12.4073 13.8938 12.4073 13.8958 12.4073 13.8978C12.4073 13.8998 12.4073 13.9019 12.4073 13.9039C12.4073 13.9059 12.4073 13.908 12.4073 13.9101C12.4073 13.9121 12.4073 13.9142 12.4073 13.9163C12.4073 13.9184 12.4073 13.9205 12.4073 13.9226C12.4073 13.9247 12.4073 13.9268 12.4073 13.929C12.4073 13.9311 12.4073 13.9333 12.4073 13.9355C12.4073 13.9376 12.4073 13.9398 12.4073 13.942C12.4073 13.9442 12.4073 13.9465 12.4073 13.9487C12.4073 13.9509 12.4073 13.9532 12.4073 13.9554C12.4073 13.9577 12.4073 13.9599 12.4073 13.9622C12.4073 13.9645 12.4073 13.9668 12.4073 13.9691C12.4073 13.9714 12.4073 13.9738 12.4073 13.9761C12.4073 13.9785 12.4073 13.9808 12.4073 13.9832C12.4073 13.9856 12.4073 13.9879 12.4073 13.9903C12.4073 13.9927 12.4073 13.9952 12.4073 13.9976C12.4073 14 12.4073 14.0025 12.4073 14.0049C12.4073 14.0074 12.4073 14.0098 12.4073 14.0123C12.4073 14.0148 12.4073 14.0173 12.4073 14.0198C12.4073 14.0224 12.4073 14.0249 12.4073 14.0274C12.4073 14.03 12.4073 14.0326 12.4073 14.0351C12.4073 14.0377 12.4073 14.0403 12.4073 14.0429C12.4073 14.0455 12.4073 14.0482 12.4073 14.0508C12.4073 14.0534 12.4073 14.0561 12.4073 14.0588C12.4073 14.0614 12.4073 14.0641 12.4073 14.0668C12.4073 14.0695 12.4073 14.0722 12.4073 14.075C12.4073 14.0777 12.4073 14.0804 12.4073 14.0832C12.4073 14.086 12.4073 14.0887 12.4073 14.0915C12.4073 14.0943 12.4073 14.0971 12.4073 14.1C12.4073 14.1028 12.4073 14.1056 12.4073 14.1085C12.4073 14.1113 12.4073 14.1142 12.4073 14.1171C12.4073 14.12 12.4073 14.1229 12.4073 14.1258C12.4073 14.1287 12.4073 14.1317 12.4073 14.1346C12.4073 14.1376 12.4073 14.1405 12.4073 14.1435C12.4073 14.1465 12.4073 14.1495 12.4073 14.1525C12.4073 14.1556 12.4073 14.1586 12.4073 14.1616C12.4073 14.1647 12.4073 14.1678 12.4073 14.1708C12.4073 14.1739 12.4073 14.177 12.4073 14.1801C12.4073 14.1833 12.4073 14.1864 12.4073 14.1895C12.4073 14.1927 12.4073 14.1959 12.4073 14.199C12.4073 14.2022 12.4073 14.2054 12.4073 14.2086C12.4073 14.2119 12.4073 14.2151 12.4073 14.2183C12.4073 14.2216 12.4073 14.2249 12.4073 14.2281C12.4073 14.2314 12.4073 14.2347 12.4073 14.238C12.4073 14.2414 12.4073 14.2447 12.4073 14.248C12.4073 14.2514 12.4073 14.2548 12.4073 14.2582C12.4073 14.2615 12.4073 14.2649 12.4073 14.2684C12.4073 14.2718 12.4073 14.2752 12.4073 14.2787C12.4073 14.2821 12.4073 14.2856 12.4073 14.2891C12.4073 14.2926 12.4073 14.2961 12.4073 14.2996C12.4073 14.3032 12.4073 14.3067 12.4073 14.3103C12.4073 14.3138 12.4073 14.3174 12.4073 14.321C12.4073 14.3246 12.4073 14.3282 12.4073 14.3319C12.4073 14.3355 12.4073 14.3391 12.4073 14.3428C12.4073 14.3465 12.4073 14.3502 12.4073 14.3539C12.4073 14.3576 12.4073 14.3613 12.4073 14.365C12.4073 14.3688 12.4073 14.3726 12.4073 14.3763C12.4073 14.3801 12.4073 14.3839 12.4073 14.3877C12.4073 14.3915 12.4073 14.3954 12.4073 14.3992C12.4073 14.4031 12.4073 14.4069 12.4073 14.4108C12.4073 14.4147 12.4073 14.4186 12.4073 14.4225C12.4073 14.4265 12.4073 14.4304 12.4073 14.4344C12.4073 14.4383 12.4073 14.4423 12.4073 14.4463C12.4073 14.4503 12.4073 14.4543 12.4073 14.4584C12.4073 14.4624 12.4073 14.4665 12.4073 14.4706C12.4073 14.4746 12.4073 14.4787 12.4073 14.4828C12.4073 14.487 12.4073 14.4911 12.4073 14.4952C12.4073 14.4994 12.4073 14.5036 12.4073 14.5078C12.4073 14.5119 12.4073 14.5162 12.4073 14.5204C12.4073 14.5246 12.4073 14.5289 12.4073 14.5331C12.4073 14.5374 12.4073 14.5417 12.4073 14.546C12.4073 14.5503 12.4073 14.5546 12.4073 14.559C12.4073 14.5633 12.4073 14.5677 12.4073 14.5721C12.4073 14.5764 12.4073 14.5808 12.4073 14.5853C12.4073 14.5897 12.4073 14.5941 12.4073 14.5986C12.4073 14.6031 12.4073 14.6076 12.4073 14.6121C12.4073 14.6166 12.4073 14.6211 12.4073 14.6256C12.4073 14.6302 12.4073 14.6347 12.4073 14.6393C12.4073 14.6439 12.4073 14.6485 12.4073 14.6531C12.4073 14.6578 12.4073 14.6624 12.4073 14.6671C12.4073 14.6717 12.4073 14.6764 12.4073 14.6811C12.4073 14.6858 12.4073 14.6905 12.4073 14.6953C12.4073 14.7 12.4073 14.7048 12.4073 14.7096C12.4073 14.7144 12.4073 14.7192 12.4073 14.724C12.4073 14.7288 12.4073 14.7337 12.4073 14.7386C12.4073 14.7434 12.4073 14.7483 12.4073 14.7532C12.4073 14.7581 12.4073 14.7631 12.4073 14.768C12.4073 14.773 12.4073 14.778 12.4073 14.7829C12.4073 14.7879 12.4073 14.793 12.4073 14.798C12.4073 14.803 12.4073 14.8081 12.4073 14.8132C12.4073 14.8182 12.4073 14.8233 12.4073 14.8285C12.4073 14.8336 12.4073 14.8387 12.4073 14.8439C12.4073 14.8491 12.4073 14.8542 12.4073 14.8594C12.4073 14.8647 12.4073 14.8699 12.4073 14.8751C12.4073 14.8804 12.4073 14.8857 12.4073 14.8909C12.4073 14.8962 12.4073 14.9016 12.4073 14.9069C12.4073 14.9122 12.4073 14.9176 12.4073 14.923C12.4073 14.9283 12.4073 14.9337 12.4073 14.9392C12.4073 14.9446 12.4073 14.95 12.4073 14.9555C12.4073 14.961 12.4073 14.9665 12.4073 14.972C12.4073 14.9775 12.4073 14.983 12.4073 14.9886C12.4073 14.9941 12.4073 14.9997 12.4073 15.0053C12.4073 15.0109 12.4073 15.0165 12.4073 15.0222C12.4073 15.0278 12.4073 15.0335 12.4073 15.0392C12.4073 15.0448 12.4073 15.0506 12.4073 15.0563C12.4073 15.062 12.4073 15.0678 12.4073 15.0736C12.4073 15.0793 12.4073 15.0851 12.4073 15.091C12.4073 15.0968 12.4073 15.1026 12.4073 15.1085C12.4073 15.1144 12.4073 15.1203 12.4073 15.1262C12.4073 15.1321 12.4073 15.138 12.4073 15.144C12.4073 15.15 12.4073 15.1559 12.4073 15.1619C12.4073 15.1679 12.4073 15.174 12.4073 15.18C12.4073 15.1861 12.4073 15.1922 12.4073 15.1983C12.4073 15.2044 12.4073 15.2105 12.4073 15.2166C12.4073 15.2228 12.4073 15.2289 12.4073 15.2351C12.4073 15.2413 12.4073 15.2475 12.4073 15.2538C12.4073 15.26 12.4073 15.2663 12.4073 15.2726C12.4073 15.2789 12.4073 15.2852 12.4073 15.2915C12.4073 15.2978 12.4073 15.3042 12.4073 15.3106C12.4073 15.3169 12.4073 15.3233 12.4073 15.3298C12.4073 15.3362 12.4073 15.3427 12.4073 15.3491C12.4073 15.3556 12.4073 15.3621 12.4073 15.3686C12.4073 15.3752 12.4073 15.3817 12.4073 15.3883C12.4073 15.3948 12.4073 15.4014 12.4073 15.4081C12.4073 15.4147 12.4073 15.4213 12.4073 15.428C12.4073 15.4347 12.4073 15.4413 12.4073 15.4481C12.4073 15.4548 12.4073 15.4615 12.4073 15.4683C12.4073 15.4751 12.4073 15.4818 12.4073 15.4887C12.4073 15.4955 12.4073 15.5023 12.4073 15.5092C12.4073 15.516 12.4073 15.5229 12.4073 15.5298C12.4073 15.5368 12.4073 15.5437 12.4073 15.5507C12.4073 15.5576 12.4073 15.5646 12.4073 15.5716C12.4073 15.5786 12.4073 15.5857 12.4073 15.5927C12.4073 15.5998 12.4073 15.6069 12.4073 15.614C12.4073 15.6211 12.4073 15.6282 12.4073 15.6354C12.4073 15.6426 12.4073 15.6497 12.4073 15.657C12.4073 15.6642 12.4073 15.6714 12.4073 15.6787C12.4073 15.6859 12.4073 15.6932 12.4073 15.7005C12.4073 15.7078 12.4073 15.7152 12.4073 15.7226C12.4073 15.7299 12.4073 15.7373 12.4073 15.7447C12.4073 15.7521 12.4073 15.7596 12.4073 15.767C12.4073 15.7745 12.4073 15.782 12.4073 15.7895C12.4073 15.797 12.4073 15.8046 12.4073 15.8122C12.4073 15.8197 12.4073 15.8273 12.4073 15.8349C12.4073 15.8426 12.4073 15.8502 12.4073 15.8579C12.4073 15.8656 12.4073 15.8733 12.4073 15.881C12.4073 15.8887 12.4073 15.8965 12.4073 15.9042C12.4073 15.912 12.4073 15.9198 12.4073 15.9276C12.4073 15.9355 12.4073 15.9433 12.4073 15.9512C12.4073 15.9591 12.4073 15.967 12.4073 15.9749C12.4073 15.9829 12.4073 15.9908 12.4073 15.9988C12.4073 16.0068 12.4073 16.0148 12.4073 16.0229C12.4073 16.0309 12.4073 16.039 12.4073 16.0471C12.4073 16.0552 12.4073 16.0633 12.4073 16.0714C12.4073 16.0796 12.4073 16.0878 12.4073 16.096C12.4073 16.1042 12.4073 16.1124 12.4073 16.1207C12.4073 16.1289 12.4073 16.1372 12.4073 16.1455C12.4073 16.1538 12.4073 16.1622 12.4073 16.1705C12.4073 16.1789 12.4073 16.1873 12.4073 16.1957C12.4073 16.2041 12.4073 16.2126 12.4073 16.221C12.4073 16.2295 12.4073 16.238 12.4073 16.2465C12.4073 16.2551 12.4073 16.2636 12.4073 16.2722C12.4073 16.2808 12.4073 16.2894 12.4073 16.298C12.4073 16.3067 12.4073 16.3153 12.4073 16.324C12.4073 16.3327 12.4073 16.3414 12.4073 16.3502C12.4073 16.3589 12.4073 16.3677 12.4073 16.3765C12.4073 16.3853 12.4073 16.3942 12.4073 16.403C12.4073 16.4119 12.4073 16.4208 12.4073 16.4297C12.4073 16.4386 12.4073 16.4476 12.4073 16.4565C12.4073 16.4655 12.4073 16.4745 12.4073 16.4835C12.4073 16.4926 12.4073 16.5016 12.4073 16.5107C12.4073 16.5198 12.4073 16.5289 12.4073 16.538C12.4073 16.5472 12.4073 16.5564 12.4073 16.5656C12.4073 16.5748 12.4073 16.584 12.4073 16.5932C12.4073 16.6025 12.4073 16.6118 12.4073 16.6211C12.4073 16.6304 12.4073 16.6397 12.4073 16.6491C12.4073 16.6585 12.4073 16.6679 12.4073 16.6773C12.4073 16.6867 12.4073 16.6962 12.4073 16.7057C12.4073 16.7152 12.4073 16.7247 12.4073 16.7342C12.4073 16.7438 12.4073 16.7533 12.4073 16.763C12.4073 16.7726 12.4073 16.7822 12.4073 16.7918C12.4073 16.8015 12.4073 16.8112 12.4073 16.8209C12.4073 16.8306 12.4073 16.8404 12.4073 16.8502C12.4073 16.8599 12.4073 16.8697 12.4073 16.8796C12.4073 16.8894 12.4073 16.8993 12.4073 16.9092C12.4073 16.9191 12.4073 16.929 12.4073 16.939C12.4073 16.9489 12.4073 16.9589 12.4073 16.9689C12.4073 16.9789 12.4073 16.989 12.4073 16.999C12.4073 17.0091 12.4073 17.0192 12.4073 17.0293C12.4073 17.0395 12.4073 17.0496 12.4073 17.0598C12.4073 17.07 12.4073 17.0802 12.4073 17.0905C12.4073 17.1008 12.4073 17.111 12.4073 17.1214C12.4073 17.1317 12.4073 17.142 12.4073 17.1524C12.4073 17.1628 12.4073 17.1732 12.4073 17.1836C12.4073 17.194 12.4073 17.2045 12.4073 17.215C12.4073 17.2255 12.4073 17.236 12.4073 17.2466C12.4073 17.2571 12.4073 17.2677 12.4073 17.2783C12.4073 17.2889 12.4073 17.2996 12.4073 17.3103C12.4073 17.3209 12.4073 17.3316 12.4073 17.3424C12.4073 17.3531 12.4073 17.3639 12.4073 17.3747C12.4073 17.3855 12.4073 17.3963 12.4073 17.4072C12.4073 17.4181 12.4073 17.429 12.4073 17.4399C12.4073 17.4508 12.4073 17.4618 12.4073 17.4727C12.4073 17.4837 12.4073 17.4948 12.4073 17.5058C12.4073 17.5169 12.4073 17.5279 12.4073 17.539C12.4073 17.5502 12.4073 17.5613 12.4073 17.5725C12.4073 17.5837 12.4073 17.5949 12.4073 17.6061C12.4073 17.6173 12.4073 17.6286 12.4073 17.6399C12.4073 17.6512 12.4073 17.6625 12.4073 17.6739C12.4073 17.6853 12.4073 17.6967 12.4073 17.7081C12.4073 17.7195 12.4073 17.731 12.4073 17.7425C12.4073 17.754 12.4073 17.7655 12.4073 17.777C12.4073 17.7886 12.4073 17.8002 12.4073 17.8118C12.4073 17.8234 12.4073 17.8351 12.4073 17.8467C12.4073 17.8584 12.4073 17.8701 12.4073 17.8819C12.4073 17.8936 12.4073 17.9054 12.4073 17.9172C12.4073 17.929 12.4073 17.9409 12.4073 17.9528C12.4073 17.9646 12.4073 17.9765 12.4073 17.9885C12.4073 18.0004 12.4073 18.0124 12.4073 18.0244C12.4073 18.0364 12.4073 18.0484 12.4073 18.0605C12.4073 18.0726 12.4073 18.0847 12.4073 18.0968C12.4073 18.109 12.4073 18.1211 12.4073 18.1333C12.4073 18.1455 12.4073 18.1578 12.4073 18.17C12.4073 18.1823 12.4073 18.1946 12.4073 18.2069C12.4073 18.2193 12.4073 18.2316 12.4073 18.244C12.4073 18.2564 12.4073 18.2689 12.4073 18.2813C12.4073 18.2938 12.4073 18.3063 12.4073 18.3188C12.4073 18.3314 12.4073 18.3439 12.4073 18.3565C12.4073 18.3691 12.4073 18.3818 12.4073 18.3944C12.4073 18.4071 12.4073 18.4198 12.4073 18.4325C12.4073 18.4453 12.4073 18.458 12.4073 18.4708C12.4073 18.4836 12.4073 18.4965 12.4073 18.5093C12.4073 18.5222 12.4073 18.5351 12.4073 18.548C12.4073 18.561 12.4073 18.5739 12.4073 18.5869C12.4073 18.5999 12.4073 18.613 12.4073 18.626C12.4073 18.6391 12.4073 18.6522 12.4073 18.6653C12.4073 18.6785 12.4073 18.6917 12.4073 18.7049C12.4073 18.7181 12.4073 18.7313 12.4073 18.7446C12.4073 18.7578 12.4073 18.7712 12.4073 18.7845C12.4073 18.7978 12.4073 18.8112 12.4073 18.8246C12.4073 18.838 12.4073 18.8515 12.4073 18.865C12.4073 18.8784 12.4073 18.892 12.4073 18.9055C12.4073 18.9191 12.4073 18.9326 12.4073 18.9463C12.4073 18.9599 12.4073 18.9735 12.4073 18.9872C12.4073 19.0009 12.4073 19.0146 12.4073 19.0284C12.4073 19.0421 12.4073 19.0559 12.4073 19.0698C12.4073 19.0836 12.4073 19.0975 12.4073 19.1114C12.4073 19.1252 12.4073 19.1392 12.4073 19.1531C12.4073 19.1671 12.4073 19.1811 12.4073 19.1952C12.4073 19.2092 12.4073 19.2233 12.4073 19.2374C12.4073 19.2515 12.4073 19.2656 12.4073 19.2798C12.4073 19.294 12.4073 19.3082 12.4073 19.3224C12.4073 19.3367 12.4073 19.351 12.4073 19.3653C12.4073 19.3796 12.4073 19.394 12.4073 19.4084C12.4073 19.4228 12.4073 19.4372 12.4073 19.4516C12.4073 19.4661 12.4073 19.4806 12.4073 19.4951C12.4073 19.5097 12.4073 19.5242 12.4073 19.5389C12.4073 19.5535 12.4073 19.5681 12.4073 19.5828C12.4073 19.5975 12.4073 19.6122 12.4073 19.6269C12.4073 19.6417 12.4073 19.6565 12.4073 19.6713C12.4073 19.6861 12.4073 19.701 12.4073 19.7159C12.4073 19.7307 12.4073 19.7457 12.4073 19.7606C12.4073 19.7756 12.4073 19.7906 12.4073 19.8057C12.4073 19.8207 12.4073 19.8358 12.4073 19.8509C12.4073 19.866 12.4073 19.8811 12.4073 19.8963C12.4073 19.9115 12.4073 19.9267 12.4073 19.942C12.4073 19.9573 12.4073 19.9725 12.4073 19.9879C12.4073 20.0032 12.4073 20.0186 12.4073 20.034C12.4073 20.0494 12.4073 20.0648 12.4073 20.0803C12.4073 20.0958 12.4073 20.1113 12.4073 20.1269C12.4073 20.1424 12.4073 20.158 12.4073 20.1736C12.4073 20.1893 12.4073 20.2049 12.4073 20.2206C12.4073 20.2363 12.4073 20.2521 12.4073 20.2679C12.4073 20.2836 12.4073 20.2994 12.4073 20.3153C12.4073 20.3312 12.4073 20.347 12.4073 20.363C12.4073 20.3789 12.4073 20.3949 12.4073 20.4109C12.4073 20.4269 12.4073 20.4429 12.4073 20.459C12.4073 20.4751 12.4073 20.4912 12.4073 20.5073C12.4073 20.5235 12.4073 20.5397 12.4073 20.5559C12.4073 20.5721 12.4073 20.5884 12.4073 20.6047C12.4073 20.621 12.4073 20.6373 12.4073 20.6537C12.4073 20.6701 12.4073 20.6865 12.4073 20.703C12.4073 20.7194 12.4073 20.7359 12.4073 20.7524C12.4073 20.769 12.4073 20.7855 12.4073 20.8021C12.4073 20.8188 12.4073 20.8354 12.4073 20.8521C12.4073 20.8688 12.4073 20.8855 12.4073 20.9023C12.4073 20.919 12.4073 20.9358 12.4073 20.9527C12.4073 20.9695 12.4073 20.9864 12.4073 21.0033C12.4073 21.0202 12.4073 21.0372 12.4073 21.0541C12.4073 21.0711 12.4073 21.0882 12.4073 21.1052C12.4073 21.1223 12.4073 21.1394 12.4073 21.1566C12.4073 21.1737 12.4073 21.1909 12.4073 21.2081C12.4073 21.2254 12.4073 21.2426 12.4073 21.2599C12.4073 21.2772 12.4073 21.2946 12.4073 21.312C12.4073 21.3293 12.4073 21.3468 12.4073 21.3642C12.4073 21.3817 12.4073 21.3992 12.4073 21.4167C12.4073 21.4343 12.4073 21.4518 12.4073 21.4695C12.4073 21.4871 12.4073 21.5047 12.4073 21.5224C12.4073 21.5401 12.4073 21.5579 12.4073 21.5756C12.4073 21.5934 12.4073 21.6112 12.4073 21.6291C12.4073 21.6469 12.4073 21.6648 12.4073 21.6828C12.4073 21.7007 12.4073 21.7187 12.4073 21.7367C12.4073 21.7547 12.4073 21.7728 12.4073 21.7909C12.4073 21.809 12.4073 21.8271 12.4073 21.8453C12.4073 21.8634 12.4073 21.8816 12.4073 21.8999C12.4073 21.9182 12.4073 21.9364 12.4073 21.9548C12.4073 21.9731 12.4073 21.9915 12.4073 22.0099C12.4073 22.0283 12.4073 22.0468 12.4073 22.0653C12.4073 22.0838 12.4073 22.1023 12.4073 22.1209C12.4073 22.1395 12.4073 22.1581 12.4073 22.1767C12.4073 22.1954 12.4073 22.2141 12.4073 22.2328C12.4073 22.2516 12.4073 22.2703 12.4073 22.2892C12.4073 22.308 12.4073 22.3268 12.4073 22.3457C12.4073 22.3647 12.4073 22.3836 12.4073 22.4026C12.4073 22.4216 12.4073 22.4406 12.4073 22.4597C12.4073 22.4787 12.4073 22.4978 12.4073 22.517C12.4073 22.5361 12.4073 22.5553 12.4073 22.5745C12.4073 22.5938 12.4073 22.613 12.4073 22.6323C12.4073 22.6517 12.4073 22.671 12.4073 22.6904C12.4073 22.7098 12.4073 22.7292 12.4073 22.7487C12.4073 22.7682 12.4073 22.7877 12.4073 22.8073C12.4073 22.8268 12.4073 22.8464 12.4073 22.8661C12.4073 22.8857 12.4073 22.9054 12.4073 22.9251C12.4073 22.9449 12.4073 22.9646 12.4073 22.9844C12.4073 23.0043 12.4073 23.0241 12.4073 23.044C12.4073 23.0639 12.4073 23.0838 12.4073 23.1038C12.4073 23.1238 12.4073 23.1438 12.4073 23.1639C12.4073 23.1839 12.4073 23.204 12.4073 23.2242C12.4073 23.2443 12.4073 23.2645 12.4073 23.2847C12.4073 23.305 12.4073 23.3253 12.4073 23.3456C12.4073 23.3659 12.4073 23.3862 12.4073 23.4066C12.4073 23.427 12.4073 23.4475 12.4073 23.468C12.4073 23.4884 12.4073 23.509 12.4073 23.5295C12.4073 23.5501 12.4073 23.5707 12.4073 23.5914C12.4073 23.612 12.4073 23.6327 12.4073 23.6535C12.4073 23.6742 12.4073 23.695 12.4073 23.7158C12.4073 23.7367 12.4073 23.7575 12.4073 23.7784C12.4073 23.7993 12.4073 23.8203 12.4073 23.8413C12.4073 23.8623 12.4073 23.8833 12.4073 23.9044C12.4073 23.9255 12.4073 23.9466 12.4073 23.9678C12.4073 23.989 12.4073 24.0102 12.4073 24.0314C12.4073 24.0527 12.4073 24.074 12.4073 24.0954C12.4073 24.1167 12.4073 24.1381 12.4073 24.1595C12.4073 24.1809 12.4073 24.2024 12.4073 24.2239C12.4073 24.2455 12.4073 24.267 12.4073 24.2886C12.4073 24.3102 12.4073 24.3319 12.4073 24.3536C12.4073 24.3753 12.4073 24.397 12.4073 24.4188C12.4073 24.4405 12.4073 24.4624 12.4073 24.4842C12.4073 24.5061 12.4073 24.528 12.4073 24.55C12.4073 24.5719 12.4073 24.5939 12.4073 24.616C12.4073 24.638 12.4073 24.6601 12.4073 24.6822C12.4073 24.7044 12.4073 24.7265 12.4073 24.7488C12.4073 24.771 12.4073 24.7932 12.4073 24.8156C12.4073 24.8379 12.4073 24.8602 12.4073 24.8826C12.4073 24.905 12.4073 24.9275 12.4073 24.9499C12.4073 24.9724 12.4073 24.995 12.4073 25.0175C12.4073 25.0401 12.4073 25.0627 12.4073 25.0854C12.4073 25.1081 12.4073 25.1308 12.4073 25.1535C12.4073 25.1763 12.4073 25.1991 12.4073 25.2219C12.4073 25.2448 12.4073 25.2677 12.4073 25.2906C12.4073 25.3135 12.4073 25.3365 12.4073 25.3595C12.4073 25.3826 12.4073 25.4056 12.4073 25.4287H15.2476C15.2476 25.4056 15.2476 25.3826 15.2476 25.3595C15.2476 25.3365 15.2476 25.3135 15.2476 25.2906C15.2476 25.2677 15.2476 25.2448 15.2476 25.2219C15.2476 25.1991 15.2476 25.1763 15.2476 25.1535C15.2476 25.1308 15.2476 25.1081 15.2476 25.0854C15.2476 25.0627 15.2476 25.0401 15.2476 25.0175C15.2476 24.995 15.2476 24.9724 15.2476 24.9499C15.2476 24.9275 15.2476 24.905 15.2476 24.8826C15.2476 24.8602 15.2476 24.8379 15.2476 24.8156C15.2476 24.7932 15.2476 24.771 15.2476 24.7488C15.2476 24.7265 15.2476 24.7044 15.2476 24.6822C15.2476 24.6601 15.2476 24.638 15.2476 24.616C15.2476 24.5939 15.2476 24.5719 15.2476 24.55C15.2476 24.528 15.2476 24.5061 15.2476 24.4842C15.2476 24.4624 15.2476 24.4405 15.2476 24.4188C15.2476 24.397 15.2476 24.3753 15.2476 24.3536C15.2476 24.3319 15.2476 24.3102 15.2476 24.2886C15.2476 24.267 15.2476 24.2455 15.2476 24.2239C15.2476 24.2024 15.2476 24.1809 15.2476 24.1595C15.2476 24.1381 15.2476 24.1167 15.2476 24.0954C15.2476 24.074 15.2476 24.0527 15.2476 24.0314C15.2476 24.0102 15.2476 23.989 15.2476 23.9678C15.2476 23.9466 15.2476 23.9255 15.2476 23.9044C15.2476 23.8833 15.2476 23.8623 15.2476 23.8413C15.2476 23.8203 15.2476 23.7993 15.2476 23.7784C15.2476 23.7575 15.2476 23.7367 15.2476 23.7158C15.2476 23.695 15.2476 23.6742 15.2476 23.6535C15.2476 23.6327 15.2476 23.612 15.2476 23.5914C15.2476 23.5707 15.2476 23.5501 15.2476 23.5295C15.2476 23.509 15.2476 23.4884 15.2476 23.468C15.2476 23.4475 15.2476 23.427 15.2476 23.4066C15.2476 23.3862 15.2476 23.3659 15.2476 23.3456C15.2476 23.3253 15.2476 23.305 15.2476 23.2847C15.2476 23.2645 15.2476 23.2443 15.2476 23.2242C15.2476 23.204 15.2476 23.1839 15.2476 23.1639C15.2476 23.1438 15.2476 23.1238 15.2476 23.1038C15.2476 23.0838 15.2476 23.0639 15.2476 23.044C15.2476 23.0241 15.2476 23.0043 15.2476 22.9844C15.2476 22.9646 15.2476 22.9449 15.2476 22.9251C15.2476 22.9054 15.2476 22.8857 15.2476 22.8661C15.2476 22.8464 15.2476 22.8268 15.2476 22.8073C15.2476 22.7877 15.2476 22.7682 15.2476 22.7487C15.2476 22.7292 15.2476 22.7098 15.2476 22.6904C15.2476 22.671 15.2476 22.6517 15.2476 22.6323C15.2476 22.613 15.2476 22.5938 15.2476 22.5745C15.2476 22.5553 15.2476 22.5361 15.2476 22.517C15.2476 22.4978 15.2476 22.4787 15.2476 22.4597C15.2476 22.4406 15.2476 22.4216 15.2476 22.4026C15.2476 22.3836 15.2476 22.3647 15.2476 22.3457C15.2476 22.3268 15.2476 22.308 15.2476 22.2892C15.2476 22.2703 15.2476 22.2516 15.2476 22.2328C15.2476 22.2141 15.2476 22.1954 15.2476 22.1767C15.2476 22.1581 15.2476 22.1395 15.2476 22.1209C15.2476 22.1023 15.2476 22.0838 15.2476 22.0653C15.2476 22.0468 15.2476 22.0283 15.2476 22.0099C15.2476 21.9915 15.2476 21.9731 15.2476 21.9548C15.2476 21.9364 15.2476 21.9182 15.2476 21.8999C15.2476 21.8816 15.2476 21.8634 15.2476 21.8453C15.2476 21.8271 15.2476 21.809 15.2476 21.7909C15.2476 21.7728 15.2476 21.7547 15.2476 21.7367C15.2476 21.7187 15.2476 21.7007 15.2476 21.6828C15.2476 21.6648 15.2476 21.6469 15.2476 21.6291C15.2476 21.6112 15.2476 21.5934 15.2476 21.5756C15.2476 21.5579 15.2476 21.5401 15.2476 21.5224C15.2476 21.5047 15.2476 21.4871 15.2476 21.4695C15.2476 21.4518 15.2476 21.4343 15.2476 21.4167C15.2476 21.3992 15.2476 21.3817 15.2476 21.3642C15.2476 21.3468 15.2476 21.3293 15.2476 21.312C15.2476 21.2946 15.2476 21.2772 15.2476 21.2599C15.2476 21.2426 15.2476 21.2254 15.2476 21.2081C15.2476 21.1909 15.2476 21.1737 15.2476 21.1566C15.2476 21.1394 15.2476 21.1223 15.2476 21.1052C15.2476 21.0882 15.2476 21.0711 15.2476 21.0541C15.2476 21.0372 15.2476 21.0202 15.2476 21.0033C15.2476 20.9864 15.2476 20.9695 15.2476 20.9527C15.2476 20.9358 15.2476 20.919 15.2476 20.9023C15.2476 20.8855 15.2476 20.8688 15.2476 20.8521C15.2476 20.8354 15.2476 20.8188 15.2476 20.8021C15.2476 20.7855 15.2476 20.769 15.2476 20.7524C15.2476 20.7359 15.2476 20.7194 15.2476 20.703C15.2476 20.6865 15.2476 20.6701 15.2476 20.6537C15.2476 20.6373 15.2476 20.621 15.2476 20.6047C15.2476 20.5884 15.2476 20.5721 15.2476 20.5559C15.2476 20.5397 15.2476 20.5235 15.2476 20.5073C15.2476 20.4912 15.2476 20.4751 15.2476 20.459C15.2476 20.4429 15.2476 20.4269 15.2476 20.4109C15.2476 20.3949 15.2476 20.3789 15.2476 20.363C15.2476 20.347 15.2476 20.3312 15.2476 20.3153C15.2476 20.2994 15.2476 20.2836 15.2476 20.2679C15.2476 20.2521 15.2476 20.2363 15.2476 20.2206C15.2476 20.2049 15.2476 20.1893 15.2476 20.1736C15.2476 20.158 15.2476 20.1424 15.2476 20.1269C15.2476 20.1113 15.2476 20.0958 15.2476 20.0803C15.2476 20.0648 15.2476 20.0494 15.2476 20.034C15.2476 20.0186 15.2476 20.0032 15.2476 19.9879C15.2476 19.9725 15.2476 19.9573 15.2476 19.942C15.2476 19.9267 15.2476 19.9115 15.2476 19.8963C15.2476 19.8811 15.2476 19.866 15.2476 19.8509C15.2476 19.8358 15.2476 19.8207 15.2476 19.8057C15.2476 19.7906 15.2476 19.7756 15.2476 19.7606C15.2476 19.7457 15.2476 19.7307 15.2476 19.7159C15.2476 19.701 15.2476 19.6861 15.2476 19.6713C15.2476 19.6565 15.2476 19.6417 15.2476 19.6269C15.2476 19.6122 15.2476 19.5975 15.2476 19.5828C15.2476 19.5681 15.2476 19.5535 15.2476 19.5389C15.2476 19.5242 15.2476 19.5097 15.2476 19.4951C15.2476 19.4806 15.2476 19.4661 15.2476 19.4516C15.2476 19.4372 15.2476 19.4228 15.2476 19.4084C15.2476 19.394 15.2476 19.3796 15.2476 19.3653C15.2476 19.351 15.2476 19.3367 15.2476 19.3224C15.2476 19.3082 15.2476 19.294 15.2476 19.2798C15.2476 19.2656 15.2476 19.2515 15.2476 19.2374C15.2476 19.2233 15.2476 19.2092 15.2476 19.1952C15.2476 19.1811 15.2476 19.1671 15.2476 19.1531C15.2476 19.1392 15.2476 19.1252 15.2476 19.1114C15.2476 19.0975 15.2476 19.0836 15.2476 19.0698C15.2476 19.0559 15.2476 19.0421 15.2476 19.0284C15.2476 19.0146 15.2476 19.0009 15.2476 18.9872C15.2476 18.9735 15.2476 18.9599 15.2476 18.9463C15.2476 18.9326 15.2476 18.9191 15.2476 18.9055C15.2476 18.892 15.2476 18.8784 15.2476 18.865C15.2476 18.8515 15.2476 18.838 15.2476 18.8246C15.2476 18.8112 15.2476 18.7978 15.2476 18.7845C15.2476 18.7712 15.2476 18.7578 15.2476 18.7446C15.2476 18.7313 15.2476 18.7181 15.2476 18.7049C15.2476 18.6917 15.2476 18.6785 15.2476 18.6653C15.2476 18.6522 15.2476 18.6391 15.2476 18.626C15.2476 18.613 15.2476 18.5999 15.2476 18.5869C15.2476 18.5739 15.2476 18.561 15.2476 18.548C15.2476 18.5351 15.2476 18.5222 15.2476 18.5093C15.2476 18.4965 15.2476 18.4836 15.2476 18.4708C15.2476 18.458 15.2476 18.4453 15.2476 18.4325C15.2476 18.4198 15.2476 18.4071 15.2476 18.3944C15.2476 18.3818 15.2476 18.3691 15.2476 18.3565C15.2476 18.3439 15.2476 18.3314 15.2476 18.3188C15.2476 18.3063 15.2476 18.2938 15.2476 18.2813C15.2476 18.2689 15.2476 18.2564 15.2476 18.244C15.2476 18.2316 15.2476 18.2193 15.2476 18.2069C15.2476 18.1946 15.2476 18.1823 15.2476 18.17C15.2476 18.1578 15.2476 18.1455 15.2476 18.1333C15.2476 18.1211 15.2476 18.109 15.2476 18.0968C15.2476 18.0847 15.2476 18.0726 15.2476 18.0605C15.2476 18.0484 15.2476 18.0364 15.2476 18.0244C15.2476 18.0124 15.2476 18.0004 15.2476 17.9885C15.2476 17.9765 15.2476 17.9646 15.2476 17.9528C15.2476 17.9409 15.2476 17.929 15.2476 17.9172C15.2476 17.9054 15.2476 17.8936 15.2476 17.8819C15.2476 17.8701 15.2476 17.8584 15.2476 17.8467C15.2476 17.8351 15.2476 17.8234 15.2476 17.8118C15.2476 17.8002 15.2476 17.7886 15.2476 17.777C15.2476 17.7655 15.2476 17.754 15.2476 17.7425C15.2476 17.731 15.2476 17.7195 15.2476 17.7081C15.2476 17.6967 15.2476 17.6853 15.2476 17.6739C15.2476 17.6625 15.2476 17.6512 15.2476 17.6399C15.2476 17.6286 15.2476 17.6173 15.2476 17.6061C15.2476 17.5949 15.2476 17.5837 15.2476 17.5725C15.2476 17.5613 15.2476 17.5502 15.2476 17.539C15.2476 17.5279 15.2476 17.5169 15.2476 17.5058C15.2476 17.4948 15.2476 17.4837 15.2476 17.4727C15.2476 17.4618 15.2476 17.4508 15.2476 17.4399C15.2476 17.429 15.2476 17.4181 15.2476 17.4072C15.2476 17.3963 15.2476 17.3855 15.2476 17.3747C15.2476 17.3639 15.2476 17.3531 15.2476 17.3424C15.2476 17.3316 15.2476 17.3209 15.2476 17.3103C15.2476 17.2996 15.2476 17.2889 15.2476 17.2783C15.2476 17.2677 15.2476 17.2571 15.2476 17.2466C15.2476 17.236 15.2476 17.2255 15.2476 17.215C15.2476 17.2045 15.2476 17.194 15.2476 17.1836C15.2476 17.1732 15.2476 17.1628 15.2476 17.1524C15.2476 17.142 15.2476 17.1317 15.2476 17.1214C15.2476 17.111 15.2476 17.1008 15.2476 17.0905C15.2476 17.0802 15.2476 17.07 15.2476 17.0598C15.2476 17.0496 15.2476 17.0395 15.2476 17.0293C15.2476 17.0192 15.2476 17.0091 15.2476 16.999C15.2476 16.989 15.2476 16.9789 15.2476 16.9689C15.2476 16.9589 15.2476 16.9489 15.2476 16.939C15.2476 16.929 15.2476 16.9191 15.2476 16.9092C15.2476 16.8993 15.2476 16.8894 15.2476 16.8796C15.2476 16.8697 15.2476 16.8599 15.2476 16.8502C15.2476 16.8404 15.2476 16.8306 15.2476 16.8209C15.2476 16.8112 15.2476 16.8015 15.2476 16.7918C15.2476 16.7822 15.2476 16.7726 15.2476 16.763C15.2476 16.7533 15.2476 16.7438 15.2476 16.7342C15.2476 16.7247 15.2476 16.7152 15.2476 16.7057C15.2476 16.6962 15.2476 16.6867 15.2476 16.6773C15.2476 16.6679 15.2476 16.6585 15.2476 16.6491C15.2476 16.6397 15.2476 16.6304 15.2476 16.6211C15.2476 16.6118 15.2476 16.6025 15.2476 16.5932C15.2476 16.584 15.2476 16.5748 15.2476 16.5656C15.2476 16.5564 15.2476 16.5472 15.2476 16.538C15.2476 16.5289 15.2476 16.5198 15.2476 16.5107C15.2476 16.5016 15.2476 16.4926 15.2476 16.4835C15.2476 16.4745 15.2476 16.4655 15.2476 16.4565C15.2476 16.4476 15.2476 16.4386 15.2476 16.4297C15.2476 16.4208 15.2476 16.4119 15.2476 16.403C15.2476 16.3942 15.2476 16.3853 15.2476 16.3765C15.2476 16.3677 15.2476 16.3589 15.2476 16.3502C15.2476 16.3414 15.2476 16.3327 15.2476 16.324C15.2476 16.3153 15.2476 16.3067 15.2476 16.298C15.2476 16.2894 15.2476 16.2808 15.2476 16.2722C15.2476 16.2636 15.2476 16.2551 15.2476 16.2465C15.2476 16.238 15.2476 16.2295 15.2476 16.221C15.2476 16.2126 15.2476 16.2041 15.2476 16.1957C15.2476 16.1873 15.2476 16.1789 15.2476 16.1705C15.2476 16.1622 15.2476 16.1538 15.2476 16.1455C15.2476 16.1372 15.2476 16.1289 15.2476 16.1207C15.2476 16.1124 15.2476 16.1042 15.2476 16.096C15.2476 16.0878 15.2476 16.0796 15.2476 16.0714C15.2476 16.0633 15.2476 16.0552 15.2476 16.0471C15.2476 16.039 15.2476 16.0309 15.2476 16.0229C15.2476 16.0148 15.2476 16.0068 15.2476 15.9988C15.2476 15.9908 15.2476 15.9829 15.2476 15.9749C15.2476 15.967 15.2476 15.9591 15.2476 15.9512C15.2476 15.9433 15.2476 15.9355 15.2476 15.9276C15.2476 15.9198 15.2476 15.912 15.2476 15.9042C15.2476 15.8965 15.2476 15.8887 15.2476 15.881C15.2476 15.8733 15.2476 15.8656 15.2476 15.8579C15.2476 15.8502 15.2476 15.8426 15.2476 15.8349C15.2476 15.8273 15.2476 15.8197 15.2476 15.8122C15.2476 15.8046 15.2476 15.797 15.2476 15.7895C15.2476 15.782 15.2476 15.7745 15.2476 15.767C15.2476 15.7596 15.2476 15.7521 15.2476 15.7447C15.2476 15.7373 15.2476 15.7299 15.2476 15.7226C15.2476 15.7152 15.2476 15.7078 15.2476 15.7005C15.2476 15.6932 15.2476 15.6859 15.2476 15.6787C15.2476 15.6714 15.2476 15.6642 15.2476 15.657C15.2476 15.6497 15.2476 15.6426 15.2476 15.6354C15.2476 15.6282 15.2476 15.6211 15.2476 15.614C15.2476 15.6069 15.2476 15.5998 15.2476 15.5927C15.2476 15.5857 15.2476 15.5786 15.2476 15.5716C15.2476 15.5646 15.2476 15.5576 15.2476 15.5507C15.2476 15.5437 15.2476 15.5368 15.2476 15.5298C15.2476 15.5229 15.2476 15.516 15.2476 15.5092C15.2476 15.5023 15.2476 15.4955 15.2476 15.4887C15.2476 15.4818 15.2476 15.4751 15.2476 15.4683C15.2476 15.4615 15.2476 15.4548 15.2476 15.4481C15.2476 15.4413 15.2476 15.4347 15.2476 15.428C15.2476 15.4213 15.2476 15.4147 15.2476 15.4081C15.2476 15.4014 15.2476 15.3948 15.2476 15.3883C15.2476 15.3817 15.2476 15.3752 15.2476 15.3686C15.2476 15.3621 15.2476 15.3556 15.2476 15.3491C15.2476 15.3427 15.2476 15.3362 15.2476 15.3298C15.2476 15.3233 15.2476 15.3169 15.2476 15.3106C15.2476 15.3042 15.2476 15.2978 15.2476 15.2915C15.2476 15.2852 15.2476 15.2789 15.2476 15.2726C15.2476 15.2663 15.2476 15.26 15.2476 15.2538C15.2476 15.2475 15.2476 15.2413 15.2476 15.2351C15.2476 15.2289 15.2476 15.2228 15.2476 15.2166C15.2476 15.2105 15.2476 15.2044 15.2476 15.1983C15.2476 15.1922 15.2476 15.1861 15.2476 15.18C15.2476 15.174 15.2476 15.1679 15.2476 15.1619C15.2476 15.1559 15.2476 15.15 15.2476 15.144C15.2476 15.138 15.2476 15.1321 15.2476 15.1262C15.2476 15.1203 15.2476 15.1144 15.2476 15.1085C15.2476 15.1026 15.2476 15.0968 15.2476 15.091C15.2476 15.0851 15.2476 15.0793 15.2476 15.0736C15.2476 15.0678 15.2476 15.062 15.2476 15.0563C15.2476 15.0506 15.2476 15.0448 15.2476 15.0392C15.2476 15.0335 15.2476 15.0278 15.2476 15.0222C15.2476 15.0165 15.2476 15.0109 15.2476 15.0053C15.2476 14.9997 15.2476 14.9941 15.2476 14.9886C15.2476 14.983 15.2476 14.9775 15.2476 14.972C15.2476 14.9665 15.2476 14.961 15.2476 14.9555C15.2476 14.95 15.2476 14.9446 15.2476 14.9392C15.2476 14.9337 15.2476 14.9283 15.2476 14.923C15.2476 14.9176 15.2476 14.9122 15.2476 14.9069C15.2476 14.9016 15.2476 14.8962 15.2476 14.8909C15.2476 14.8857 15.2476 14.8804 15.2476 14.8751C15.2476 14.8699 15.2476 14.8647 15.2476 14.8594C15.2476 14.8542 15.2476 14.8491 15.2476 14.8439C15.2476 14.8387 15.2476 14.8336 15.2476 14.8285C15.2476 14.8233 15.2476 14.8182 15.2476 14.8132C15.2476 14.8081 15.2476 14.803 15.2476 14.798C15.2476 14.793 15.2476 14.7879 15.2476 14.7829C15.2476 14.778 15.2476 14.773 15.2476 14.768C15.2476 14.7631 15.2476 14.7581 15.2476 14.7532C15.2476 14.7483 15.2476 14.7434 15.2476 14.7386C15.2476 14.7337 15.2476 14.7288 15.2476 14.724C15.2476 14.7192 15.2476 14.7144 15.2476 14.7096C15.2476 14.7048 15.2476 14.7 15.2476 14.6953C15.2476 14.6905 15.2476 14.6858 15.2476 14.6811C15.2476 14.6764 15.2476 14.6717 15.2476 14.6671C15.2476 14.6624 15.2476 14.6578 15.2476 14.6531C15.2476 14.6485 15.2476 14.6439 15.2476 14.6393C15.2476 14.6347 15.2476 14.6302 15.2476 14.6256C15.2476 14.6211 15.2476 14.6166 15.2476 14.6121C15.2476 14.6076 15.2476 14.6031 15.2476 14.5986C15.2476 14.5941 15.2476 14.5897 15.2476 14.5853C15.2476 14.5808 15.2476 14.5764 15.2476 14.5721C15.2476 14.5677 15.2476 14.5633 15.2476 14.559C15.2476 14.5546 15.2476 14.5503 15.2476 14.546C15.2476 14.5417 15.2476 14.5374 15.2476 14.5331C15.2476 14.5289 15.2476 14.5246 15.2476 14.5204C15.2476 14.5162 15.2476 14.5119 15.2476 14.5078C15.2476 14.5036 15.2476 14.4994 15.2476 14.4952C15.2476 14.4911 15.2476 14.487 15.2476 14.4828C15.2476 14.4787 15.2476 14.4746 15.2476 14.4706C15.2476 14.4665 15.2476 14.4624 15.2476 14.4584C15.2476 14.4543 15.2476 14.4503 15.2476 14.4463C15.2476 14.4423 15.2476 14.4383 15.2476 14.4344C15.2476 14.4304 15.2476 14.4265 15.2476 14.4225C15.2476 14.4186 15.2476 14.4147 15.2476 14.4108C15.2476 14.4069 15.2476 14.4031 15.2476 14.3992C15.2476 14.3954 15.2476 14.3915 15.2476 14.3877C15.2476 14.3839 15.2476 14.3801 15.2476 14.3763C15.2476 14.3726 15.2476 14.3688 15.2476 14.365C15.2476 14.3613 15.2476 14.3576 15.2476 14.3539C15.2476 14.3502 15.2476 14.3465 15.2476 14.3428C15.2476 14.3391 15.2476 14.3355 15.2476 14.3319C15.2476 14.3282 15.2476 14.3246 15.2476 14.321C15.2476 14.3174 15.2476 14.3138 15.2476 14.3103C15.2476 14.3067 15.2476 14.3032 15.2476 14.2996C15.2476 14.2961 15.2476 14.2926 15.2476 14.2891C15.2476 14.2856 15.2476 14.2821 15.2476 14.2787C15.2476 14.2752 15.2476 14.2718 15.2476 14.2684C15.2476 14.2649 15.2476 14.2615 15.2476 14.2582C15.2476 14.2548 15.2476 14.2514 15.2476 14.248C15.2476 14.2447 15.2476 14.2414 15.2476 14.238C15.2476 14.2347 15.2476 14.2314 15.2476 14.2281C15.2476 14.2249 15.2476 14.2216 15.2476 14.2183C15.2476 14.2151 15.2476 14.2119 15.2476 14.2086C15.2476 14.2054 15.2476 14.2022 15.2476 14.199C15.2476 14.1959 15.2476 14.1927 15.2476 14.1895C15.2476 14.1864 15.2476 14.1833 15.2476 14.1801C15.2476 14.177 15.2476 14.1739 15.2476 14.1708C15.2476 14.1678 15.2476 14.1647 15.2476 14.1616C15.2476 14.1586 15.2476 14.1556 15.2476 14.1525C15.2476 14.1495 15.2476 14.1465 15.2476 14.1435C15.2476 14.1405 15.2476 14.1376 15.2476 14.1346C15.2476 14.1317 15.2476 14.1287 15.2476 14.1258C15.2476 14.1229 15.2476 14.12 15.2476 14.1171C15.2476 14.1142 15.2476 14.1113 15.2476 14.1085C15.2476 14.1056 15.2476 14.1028 15.2476 14.1C15.2476 14.0971 15.2476 14.0943 15.2476 14.0915C15.2476 14.0887 15.2476 14.086 15.2476 14.0832C15.2476 14.0804 15.2476 14.0777 15.2476 14.075C15.2476 14.0722 15.2476 14.0695 15.2476 14.0668C15.2476 14.0641 15.2476 14.0614 15.2476 14.0588C15.2476 14.0561 15.2476 14.0534 15.2476 14.0508C15.2476 14.0482 15.2476 14.0455 15.2476 14.0429C15.2476 14.0403 15.2476 14.0377 15.2476 14.0351C15.2476 14.0326 15.2476 14.03 15.2476 14.0274C15.2476 14.0249 15.2476 14.0224 15.2476 14.0198C15.2476 14.0173 15.2476 14.0148 15.2476 14.0123C15.2476 14.0098 15.2476 14.0074 15.2476 14.0049C15.2476 14.0025 15.2476 14 15.2476 13.9976C15.2476 13.9952 15.2476 13.9927 15.2476 13.9903C15.2476 13.9879 15.2476 13.9856 15.2476 13.9832C15.2476 13.9808 15.2476 13.9785 15.2476 13.9761C15.2476 13.9738 15.2476 13.9714 15.2476 13.9691C15.2476 13.9668 15.2476 13.9645 15.2476 13.9622C15.2476 13.9599 15.2476 13.9577 15.2476 13.9554C15.2476 13.9532 15.2476 13.9509 15.2476 13.9487C15.2476 13.9465 15.2476 13.9442 15.2476 13.942C15.2476 13.9398 15.2476 13.9376 15.2476 13.9355C15.2476 13.9333 15.2476 13.9311 15.2476 13.929C15.2476 13.9268 15.2476 13.9247 15.2476 13.9226C15.2476 13.9205 15.2476 13.9184 15.2476 13.9163C15.2476 13.9142 15.2476 13.9121 15.2476 13.9101C15.2476 13.908 15.2476 13.9059 15.2476 13.9039C15.2476 13.9019 15.2476 13.8998 15.2476 13.8978C15.2476 13.8958 15.2476 13.8938 15.2476 13.8918C15.2476 13.8899 15.2476 13.8879 15.2476 13.8859C15.2476 13.884 15.2476 13.882 15.2476 13.8801C15.2476 13.8782 15.2476 13.8762 15.2476 13.8743C15.2476 13.8724 15.2476 13.8705 15.2476 13.8687C15.2476 13.8668 15.2476 13.8649 15.2476 13.8631C15.2476 13.8612 15.2476 13.8594 15.2476 13.8575C15.2476 13.8557 15.2476 13.8539 15.2476 13.8521C15.2476 13.8503 15.2476 13.8485 15.2476 13.8467C15.2476 13.8449 15.2476 13.8432 15.2476 13.8414C15.2476 13.8397 15.2476 13.8379 15.2476 13.8362C15.2476 13.8345 15.2476 13.8328 15.2476 13.8311C15.2476 13.8293 15.2476 13.8277 15.2476 13.826C15.2476 13.8243 15.2476 13.8226 15.2476 13.821C15.2476 13.8193 15.2476 13.8177 15.2476 13.816C15.2476 13.8144 15.2476 13.8128 15.2476 13.8112C15.2476 13.8096 15.2476 13.808 15.2476 13.8064C15.2476 13.8048 15.2476 13.8033 15.2476 13.8017C15.2476 13.8001 15.2476 13.7986 15.2476 13.797C15.2476 13.7955 15.2476 13.794 15.2476 13.7925C15.2476 13.791 15.2476 13.7895 15.2476 13.788C15.2476 13.7865 15.2476 13.785 15.2476 13.7835C15.2476 13.7821 15.2476 13.7806 15.2476 13.7792C15.2476 13.7777 15.2476 13.7763 15.2476 13.7749C15.2476 13.7734 15.2476 13.772 15.2476 13.7706C15.2476 13.7692 15.2476 13.7678 15.2476 13.7665C15.2476 13.7651 15.2476 13.7637 15.2476 13.7624C15.2476 13.761 15.2476 13.7597 15.2476 13.7583C15.2476 13.757 15.2476 13.7557 15.2476 13.7544C15.2476 13.753 15.2476 13.7517 15.2476 13.7505C15.2476 13.7492 15.2476 13.7479 15.2476 13.7466C15.2476 13.7453 15.2476 13.7441 15.2476 13.7428C15.2476 13.7416 15.2476 13.7404 15.2476 13.7391C15.2476 13.7379 15.2476 13.7367 15.2476 13.7355C15.2476 13.7343 15.2476 13.7331 15.2476 13.7319C15.2476 13.7307 15.2476 13.7295 15.2476 13.7284C15.2476 13.7272 15.2476 13.726 15.2476 13.7249C15.2476 13.7237 15.2476 13.7226 15.2476 13.7215C15.2476 13.7204 15.2476 13.7192 15.2476 13.7181C15.2476 13.717 15.2476 13.7159 15.2476 13.7148C15.2476 13.7138 15.2476 13.7127 15.2476 13.7116C15.2476 13.7105 15.2476 13.7095 15.2476 13.7084C15.2476 13.7074 15.2476 13.7064 15.2476 13.7053C15.2476 13.7043 15.2476 13.7033 15.2476 13.7023C15.2476 13.7013 15.2476 13.7003 15.2476 13.6993C15.2476 13.6983 15.2476 13.6973 15.2476 13.6963C15.2476 13.6954 15.2476 13.6944 15.2476 13.6934C15.2476 13.6925 15.2476 13.6915 15.2476 13.6906C15.2476 13.6897 15.2476 13.6887 15.2476 13.6878C15.2476 13.6869 15.2476 13.686 15.2476 13.6851C15.2476 13.6842 15.2476 13.6833 15.2476 13.6824C15.2476 13.6815 15.2476 13.6807 15.2476 13.6798C15.2476 13.6789 15.2476 13.6781 15.2476 13.6772C15.2476 13.6764 15.2476 13.6756 15.2476 13.6747C15.2476 13.6739 15.2476 13.6731 15.2476 13.6723C15.2476 13.6714 15.2476 13.6706 15.2476 13.6698C15.2476 13.6691 15.2476 13.6683 15.2476 13.6675C15.2476 13.6667 15.2476 13.6659 15.2476 13.6652C15.2476 13.6644 15.2476 13.6637 15.2476 13.6629C15.2476 13.6622 15.2476 13.6614 15.2476 13.6607C15.2476 13.66 15.2476 13.6592 15.2476 13.6585C15.2476 13.6578 15.2476 13.6571 15.2476 13.6564C15.2476 13.6557 15.2476 13.655 15.2476 13.6543C15.2476 13.6537 15.2476 13.653 15.2476 13.6523C15.2476 13.6516 15.2476 13.651 15.2476 13.6503C15.2476 13.6497 15.2476 13.649 15.2476 13.6484C15.2476 13.6478 15.2476 13.6471 15.2476 13.6465C15.2476 13.6459 15.2476 13.6453 15.2476 13.6447C15.2476 13.6441 15.2476 13.6435 15.2476 13.6429C15.2476 13.6423 15.2476 13.6417 15.2476 13.6411C15.2476 13.6405 15.2476 13.64 15.2476 13.6394C15.2476 13.6388 15.2476 13.6383 15.2476 13.6377C15.2476 13.6372 15.2476 13.6366 15.2476 13.6361C15.2476 13.6356 15.2476 13.635 15.2476 13.6345C15.2476 13.634 15.2476 13.6335 15.2476 13.633C15.2476 13.6324 15.2476 13.6319 15.2476 13.6314C15.2476 13.631 15.2476 13.6305 15.2476 13.63C15.2476 13.6295 15.2476 13.629 15.2476 13.6286C15.2476 13.6281 15.2476 13.6276 15.2476 13.6272C15.2476 13.6267 15.2476 13.6263 15.2476 13.6258C15.2476 13.6254 15.2476 13.6249 15.2476 13.6245C15.2476 13.6241 15.2476 13.6236 15.2476 13.6232C15.2476 13.6228 15.2476 13.6224 15.2476 13.622C15.2476 13.6216 15.2476 13.6212 15.2476 13.6208C15.2476 13.6204 15.2476 13.62 15.2476 13.6196C15.2476 13.6192 15.2476 13.6188 15.2476 13.6185C15.2476 13.6181 15.2476 13.6177 15.2476 13.6174C15.2476 13.617 15.2476 13.6166 15.2476 13.6163C15.2476 13.6159 15.2476 13.6156 15.2476 13.6153C15.2476 13.6149 15.2476 13.6146 15.2476 13.6143C15.2476 13.6139 15.2476 13.6136 15.2476 13.6133C15.2476 13.613 15.2476 13.6127 15.2476 13.6124C15.2476 13.6121 15.2476 13.6118 15.2476 13.6115C15.2476 13.6112 15.2476 13.6109 15.2476 13.6106C15.2476 13.6103 15.2476 13.61 15.2476 13.6097C15.2476 13.6095 15.2476 13.6092 15.2476 13.6089C15.2476 13.6087 15.2476 13.6084 15.2476 13.6081C15.2476 13.6079 15.2476 13.6076 15.2476 13.6074C15.2476 13.6071 15.2476 13.6069 15.2476 13.6066C15.2476 13.6064 15.2476 13.6062 15.2476 13.6059C15.2476 13.6057 15.2476 13.6055 15.2476 13.6053C15.2476 13.6051 15.2476 13.6048 15.2476 13.6046C15.2476 13.6044 15.2476 13.6042 15.2476 13.604C15.2476 13.6038 15.2476 13.6036 15.2476 13.6034C15.2476 13.6032 15.2476 13.603 15.2476 13.6028C15.2476 13.6026 15.2476 13.6025 15.2476 13.6023C15.2476 13.6021 15.2476 13.6019 15.2476 13.6018C15.2476 13.6016 15.2476 13.6014 15.2476 13.6013C15.2476 13.6011 15.2476 13.6009 15.2476 13.6008C15.2476 13.6006 15.2476 13.6005 15.2476 13.6003C15.2476 13.6002 15.2476 13.6 15.2476 13.5999C15.2476 13.5998 15.2476 13.5996 15.2476 13.5995C15.2476 13.5993 15.2476 13.5992 15.2476 13.5991C15.2476 13.599 15.2476 13.5988 15.2476 13.5987C15.2476 13.5986 15.2476 13.5985 15.2476 13.5984C15.2476 13.5982 15.2476 13.5981 15.2476 13.598C15.2476 13.5979 15.2476 13.5978 15.2476 13.5977C15.2476 13.5976 15.2476 13.5975 15.2476 13.5974C15.2476 13.5973 15.2476 13.5972 15.2476 13.5971C15.2476 13.597 15.2476 13.597 15.2476 13.5969C15.2476 13.5968 15.2476 13.5967 15.2476 13.5966C15.2476 13.5966 15.2476 13.5965 15.2476 13.5964C15.2476 13.5963 15.2476 13.5963 15.2476 13.5962C15.2476 13.5961 15.2476 13.5961 15.2476 13.596C15.2476 13.5959 15.2476 13.5959 15.2476 13.5958C15.2476 13.5957 15.2476 13.5957 15.2476 13.5956C15.2476 13.5956 15.2476 13.5955 15.2476 13.5955C15.2476 13.5954 15.2476 13.5954 15.2476 13.5953C15.2476 13.5953 15.2476 13.5952 15.2476 13.5952C15.2476 13.5951 15.2476 13.5951 15.2476 13.5951C15.2476 13.595 15.2476 13.595 15.2476 13.595C15.2476 13.5949 15.2476 13.5949 15.2476 13.5949C15.2476 13.5948 15.2476 13.5948 15.2476 13.5948C15.2476 13.5947 15.2476 13.5947 15.2476 13.5947C15.2476 13.5947 15.2476 13.5946 15.2476 13.5946C15.2476 13.5946 15.2476 13.5946 15.2476 13.5945C15.2476 13.5945 15.2476 13.5945 15.2476 13.5945C15.2476 13.5945 15.2476 13.5945 15.2476 13.5944C15.2476 13.5944 15.2476 13.5944 15.2476 13.5944C15.2476 13.5944 15.2476 13.5944 15.2476 13.5944C15.2476 13.5944 15.2476 13.5943 15.2476 13.5943C15.2476 13.5943 15.2476 13.5943 15.2476 13.5943C15.2476 13.5943 15.2476 13.5943 15.2476 13.5943C15.2476 13.5943 15.2476 13.5943 15.2476 13.5943C15.2476 13.5943 15.2476 13.5943 15.2476 13.5943C15.2476 13.5943 15.2476 13.5943 15.2476 13.5943C15.2476 13.5943 15.2476 13.5943 15.2476 13.5943C15.2476 13.5943 15.2476 13.5943 15.2476 13.5943C15.2476 13.5943 15.2476 13.5943 15.2476 13.5943H13.8274ZM15.2476 13.5942V1.75977H12.4073V13.5942H15.2476Z" fill="white"/>
</svg>
