<svg width="10" height="16" viewBox="0 0 10 16" fill="none" xmlns="http://www.w3.org/2000/svg">
<path d="M9.46058 6.96417L3.27647 0.78006C3.14088 0.643355 2.97957 0.534849 2.80183 0.460803C2.6241 0.386756 2.43346 0.348633 2.24092 0.348633C2.04838 0.348633 1.85774 0.386756 1.68001 0.460803C1.50228 0.534849 1.34096 0.643355 1.20538 0.78006C0.933726 1.05333 0.78125 1.42299 0.78125 1.80831C0.78125 2.19363 0.933726 2.5633 1.20538 2.83657L6.36853 7.99972L1.20538 13.1629C0.933726 13.4361 0.78125 13.8058 0.78125 14.1911C0.78125 14.5764 0.933726 14.9461 1.20538 15.2194C1.34166 15.3546 1.50329 15.4615 1.68099 15.5341C1.85869 15.6067 2.04897 15.6435 2.24092 15.6423C2.43287 15.6435 2.62315 15.6067 2.80086 15.5341C2.97856 15.4615 3.14019 15.3546 3.27647 15.2194L9.46058 9.03526C9.59729 8.89968 9.70579 8.73836 9.77984 8.56063C9.85389 8.3829 9.89201 8.19226 9.89201 7.99972C9.89201 7.80718 9.85389 7.61654 9.77984 7.43881C9.70579 7.26107 9.59729 7.09976 9.46058 6.96417Z" fill="#929292"/>
</svg>
