<svg width="50" height="50" viewBox="0 0 50 50" fill="none" xmlns="http://www.w3.org/2000/svg">
<circle cx="24.6157" cy="24.6157" r="24.6157" fill="#1F201A"/>
<path d="M23.866 17.4334C23.866 18.5062 23.866 19.5791 23.866 20.6519C23.866 22.0024 23.0045 22.8639 21.6526 22.8653C19.5069 22.8653 17.3612 22.8653 15.2156 22.8653C13.865 22.8653 13.0036 22.0038 13.0021 20.6519C13.0007 18.5062 13 16.3605 13 14.2149C13 12.8615 13.8615 12 15.2149 12C17.361 12 19.5067 12 21.6519 12C23.0024 12 23.8625 12.8601 23.8653 14.2134C23.8672 15.2872 23.8675 16.3605 23.866 17.4334Z" fill="#D9FF40"/>
<path d="M32.054 22.8659C30.9817 22.8659 29.9088 22.8659 28.8355 22.8659C27.485 22.8659 26.6228 22.0044 26.6221 20.6525C26.6221 18.5068 26.6221 16.3611 26.6221 14.2155C26.6221 12.8649 27.4821 12.0034 28.8348 12.002C30.9809 12.002 33.1266 12.002 35.2718 12.002C36.6224 12.002 37.4846 12.8621 37.4853 14.2147C37.4853 16.3609 37.4853 18.5066 37.4853 20.6518C37.4853 22.0023 36.6245 22.8631 35.2725 22.8659C34.1997 22.8673 33.1269 22.8673 32.054 22.8659Z" fill="#D9FF40"/>
<path d="M23.866 31.0488C23.866 32.1212 23.866 33.194 23.866 34.2673C23.866 35.6228 23.0081 36.485 21.6583 36.4864C19.5131 36.4864 17.3674 36.4864 15.2213 36.4864C13.8658 36.4843 13 35.6264 13 34.278C13 32.1318 13 29.9862 13 27.841C13 26.4847 13.8579 25.6232 15.207 25.6218C17.3527 25.6218 19.4984 25.6218 21.6441 25.6218C23.0109 25.6218 23.8625 26.4805 23.8639 27.8552C23.8663 28.919 23.867 29.9835 23.866 31.0488Z" fill="#D9FF40"/>
<path d="M31.9069 37.0308C31.4514 37.0108 31.0201 36.8203 30.6986 36.497C29.3338 35.1465 27.9684 33.7881 26.6207 32.4163C26.2633 32.0491 26.0643 31.5563 26.0664 31.0439C26.0685 30.5315 26.2716 30.0404 26.6321 29.6761C27.9688 28.3166 29.3149 26.9692 30.6701 25.6338C31.0367 25.2691 31.5326 25.0639 32.0497 25.0628C32.5668 25.0617 33.0635 25.2649 33.4316 25.6281C34.7892 26.964 36.1364 28.3112 37.4732 29.6697C37.8384 30.036 38.044 30.5318 38.045 31.049C38.0461 31.5661 37.8426 32.0628 37.4789 32.4305C36.1433 33.7888 34.7906 35.1316 33.4387 36.4743C33.0499 36.8609 32.5673 37.0379 31.9069 37.0308Z" fill="#D9FF40"/>
</svg>
