<svg width="14" height="21" viewBox="0 0 14 21" fill="none" xmlns="http://www.w3.org/2000/svg">
<path d="M0.0859375 10.5518C0.0859375 11.7938 0.339395 12.8963 0.846309 13.8594C1.35956 14.8226 2.07241 15.5956 2.98485 16.1786C3.8973 16.7552 4.95865 17.0942 6.16891 17.1956V19.4102H2.64269C2.43992 19.4102 2.26884 19.4799 2.12944 19.6193C1.99004 19.7587 1.92033 19.9297 1.92033 20.1325C1.92033 20.3289 1.99004 20.4969 2.12944 20.6363C2.26884 20.7757 2.43992 20.8454 2.64269 20.8454H11.1303C11.3331 20.8454 11.5042 20.7757 11.6436 20.6363C11.783 20.4969 11.8527 20.3289 11.8527 20.1325C11.8527 19.9297 11.783 19.7587 11.6436 19.6193C11.5042 19.4799 11.3331 19.4102 11.1303 19.4102H7.60411V17.1956C8.81437 17.0942 9.87572 16.7552 10.7882 16.1786C11.7006 15.5956 12.4103 14.8226 12.9172 13.8594C13.4305 12.8963 13.6871 11.7938 13.6871 10.5518V8.62239C13.6871 8.42596 13.6174 8.25804 13.478 8.11864C13.3386 7.97924 13.1707 7.90954 12.9742 7.90954C12.7715 7.90954 12.6004 7.97924 12.461 8.11864C12.3216 8.25804 12.2519 8.42596 12.2519 8.62239V10.4948C12.2519 11.572 12.0301 12.5161 11.5866 13.3272C11.143 14.1382 10.5189 14.7687 9.71414 15.2186C8.91575 15.6622 7.97479 15.8839 6.89126 15.8839C5.80773 15.8839 4.86361 15.6622 4.05888 15.2186C3.25415 14.7687 2.63001 14.1382 2.18646 13.3272C1.74291 12.5161 1.52114 11.572 1.52114 10.4948V8.62239C1.52114 8.42596 1.45144 8.25804 1.31204 8.11864C1.17264 7.97924 1.00155 7.90954 0.798786 7.90954C0.602357 7.90954 0.434441 7.97924 0.29504 8.11864C0.155638 8.25804 0.0859375 8.42596 0.0859375 8.62239V10.5518ZM6.89126 13.8404C7.51857 13.8404 8.06984 13.6947 8.54507 13.4032C9.02664 13.1117 9.39732 12.7094 9.65712 12.1961C9.92325 11.6765 10.0563 11.0778 10.0563 10.3998V4.04115C10.0563 3.36315 9.92325 2.76752 9.65712 2.25427C9.39732 1.73469 9.02664 1.32915 8.54507 1.03768C8.06984 0.746202 7.51857 0.600464 6.89126 0.600464C6.25762 0.600464 5.70318 0.746202 5.22795 1.03768C4.75272 1.32915 4.38204 1.73469 4.11591 2.25427C3.84978 2.76752 3.71671 3.36315 3.71671 4.04115V10.3998C3.71671 11.0778 3.84978 11.6765 4.11591 12.1961C4.38204 12.7094 4.75272 13.1117 5.22795 13.4032C5.70318 13.6947 6.25762 13.8404 6.89126 13.8404Z" fill="#8E8E93"/>
</svg>
