<svg width="27" height="27" viewBox="0 0 27 27" fill="none" xmlns="http://www.w3.org/2000/svg">
<g id="Vector">
<path id="Vector-28" fill-rule="evenodd" clip-rule="evenodd" d="M13.9749 21.0119L9.93104 16.9681L5.88723 12.9243C4.97607 11.9829 4.83536 10.5372 5.5479 9.43779C6.23755 8.24393 7.47601 7.47146 8.85152 7.3772C10.7064 7.41412 12.8285 7.78686 14.1524 6.46295L18.9751 1.6385C19.8426 0.759395 21.2578 0.747602 22.1398 1.61213L25.287 4.754C26.1515 5.63604 26.1397 7.0512 25.2606 7.91872L20.4362 12.7484C19.1123 14.0723 19.4867 16.1945 19.5219 18.0493C19.4271 19.4242 18.6547 20.6619 17.4613 21.3512C16.3619 22.0638 14.9162 21.923 13.9749 21.0119Z" fill="white" stroke="white" stroke-width="1.66906" stroke-linecap="round" stroke-linejoin="round"/>
<g id="Vector-29">
<path fill-rule="evenodd" clip-rule="evenodd" d="M9.93164 16.9715L1.31656 25.5866L9.93164 16.9715Z" fill="white"/>
<path d="M9.93164 16.9715L1.31656 25.5866" stroke="white" stroke-width="1.66906" stroke-linecap="round"/>
</g>
</g>
</svg>
