<svg width="30" height="30" viewBox="0 0 30 30" fill="none" xmlns="http://www.w3.org/2000/svg">
<path d="M7.40603 11.7574C6.96884 11.7574 6.61442 12.1118 6.61442 12.549C6.61442 12.9862 6.96884 13.3406 7.40603 13.3406V11.7574ZM18.7065 13.3406C19.1437 13.3406 19.4981 12.9862 19.4981 12.549C19.4981 12.1118 19.1437 11.7574 18.7065 11.7574V13.3406ZM8.82552 15.8906C8.38832 15.8906 8.03391 16.245 8.03391 16.6822C8.03391 17.1194 8.38832 17.4738 8.82552 17.4738V15.8906ZM17.3053 17.4738C17.7425 17.4738 18.0969 17.1194 18.0969 16.6822C18.0969 16.245 17.7425 15.8906 17.3053 15.8906V17.4738ZM6.56908 4.96269C6.13788 5.0348 5.84677 5.44283 5.91888 5.87403C5.99099 6.30524 6.39901 6.59635 6.83022 6.52424L6.56908 4.96269ZM7.67975 5.6631L7.67811 6.45471H7.67975V5.6631ZM18.4608 5.6631L18.4667 4.87148H18.4608V5.6631ZM24.3727 11.6632L23.5811 11.6575V11.6632H24.3727ZM24.3727 18.9473H23.5811L23.5811 18.9482L24.3727 18.9473ZM23.4992 19.8852C23.4228 20.3156 23.7099 20.7265 24.1404 20.8029C24.5708 20.8792 24.9817 20.5922 25.0581 20.1617L23.4992 19.8852ZM6.83711 6.52254C7.26765 6.44655 7.55507 6.03592 7.47908 5.60538C7.40309 5.17484 6.99247 4.88742 6.56193 4.96341L6.83711 6.52254ZM1.76181 11.6608H2.55343L2.55341 11.6565L1.76181 11.6608ZM1.76181 28.2616H0.970192C0.970192 28.5426 1.1192 28.8026 1.36169 28.9447C1.60418 29.0867 1.90381 29.0895 2.14895 28.9521L1.76181 28.2616ZM7.67373 24.9469V24.1553C7.53815 24.1553 7.40485 24.1901 7.28659 24.2564L7.67373 24.9469ZM18.4548 24.9469V25.7386L18.46 25.7385L18.4548 24.9469ZM25.0465 20.1649C25.1217 19.7342 24.8335 19.3242 24.4028 19.249C23.9721 19.1738 23.5621 19.462 23.4869 19.8927L25.0465 20.1649ZM5.91969 5.60801C5.84496 6.03877 6.13357 6.44855 6.56433 6.52329C6.9951 6.59802 7.40488 6.30941 7.47962 5.87865L5.91969 5.60801ZM12.5175 0.819336V0.0277088L12.5129 0.0277349L12.5175 0.819336ZM23.2985 0.819336L23.3053 0.0277218H23.2985V0.819336ZM29.2046 6.81947L28.413 6.81371V6.81947H29.2046ZM29.2046 14.1035H28.4129L28.413 14.1088L29.2046 14.1035ZM24.1293 19.2496C23.6987 19.3256 23.4113 19.7362 23.4873 20.1668C23.5633 20.5973 23.9739 20.8847 24.4044 20.8087L24.1293 19.2496ZM7.40603 13.3406H18.7065V11.7574H7.40603V13.3406ZM8.82552 17.4738H17.3053V15.8906H8.82552V17.4738ZM6.83022 6.52424C7.11041 6.47738 7.39404 6.45412 7.67811 6.45471L7.68138 4.87149C7.30872 4.87072 6.93665 4.90123 6.56908 4.96269L6.83022 6.52424ZM7.67975 6.45471H18.4608V4.87148H7.67975V6.45471ZM18.4548 6.45469C21.3069 6.4762 23.6018 8.80534 23.5811 11.6575L25.1643 11.669C25.1914 7.94264 22.1931 4.89961 18.4667 4.87151L18.4548 6.45469ZM23.5811 11.6632V18.9473H25.1643V11.6632H23.5811ZM23.5811 18.9482C23.5814 19.2623 23.554 19.5759 23.4992 19.8852L25.0581 20.1617C25.1292 19.7605 25.1648 19.3538 25.1643 18.9464L23.5811 18.9482ZM6.56193 4.96341C3.31422 5.53663 0.952454 8.36718 0.970204 11.665L2.55341 11.6565C2.53981 9.1301 4.34911 6.96167 6.83711 6.52254L6.56193 4.96341ZM0.970192 11.6608V28.2616H2.55342V11.6608H0.970192ZM2.14895 28.9521L8.06087 25.6374L7.28659 24.2564L1.37467 27.5711L2.14895 28.9521ZM7.67373 25.7385H18.4548V24.1553H7.67373V25.7385ZM18.46 25.7385C21.7142 25.7172 24.487 23.3707 25.0465 20.1649L23.4869 19.8927C23.059 22.3445 20.9383 24.139 18.4496 24.1553L18.46 25.7385ZM7.47962 5.87865C7.90566 3.42298 10.0297 1.62525 12.522 1.61094L12.5129 0.0277349C9.2541 0.046452 6.47677 2.39708 5.91969 5.60801L7.47962 5.87865ZM12.5175 1.61095H23.2985V0.0277218H12.5175V1.61095ZM23.2918 1.61092C26.1419 1.63523 28.4337 3.96354 28.413 6.81371L29.9962 6.82523C30.0233 3.10147 27.029 0.0595113 23.3053 0.0277506L23.2918 1.61092ZM28.413 6.81947V14.1035H29.9962V6.81947H28.413ZM28.413 14.1088C28.4299 16.6378 26.6198 18.81 24.1293 19.2496L24.4044 20.8087C27.6555 20.235 30.0183 17.3994 29.9962 14.0982L28.413 14.1088Z" fill="white"/>
</svg>
