<svg width="21" height="22" viewBox="0 0 21 22" fill="none" xmlns="http://www.w3.org/2000/svg">
<path d="M8.84596 17.1361C10.6307 17.1361 12.2972 16.5556 13.6518 15.5879L18.748 20.6841C18.9845 20.9206 19.2963 21.0389 19.6189 21.0389C20.3177 21.0389 20.823 20.5013 20.823 19.8132C20.823 19.4907 20.7155 19.1896 20.479 18.9531L15.4151 13.8785C16.4795 12.4808 17.1138 10.7498 17.1138 8.8683C17.1138 4.32045 13.3938 0.600464 8.84596 0.600464C4.28736 0.600464 0.578125 4.32045 0.578125 8.8683C0.578125 13.4161 4.28736 17.1361 8.84596 17.1361ZM8.84596 15.3514C5.28724 15.3514 2.36286 12.4163 2.36286 8.8683C2.36286 5.32033 5.28724 2.3852 8.84596 2.3852C12.3939 2.3852 15.3291 5.32033 15.3291 8.8683C15.3291 12.4163 12.3939 15.3514 8.84596 15.3514Z" fill="#8E8E93"/>
</svg>
