<svg width="30" height="30" viewBox="0 0 30 30" fill="none" xmlns="http://www.w3.org/2000/svg">
<path fill-rule="evenodd" clip-rule="evenodd" d="M13.5797 28.7229C12.8611 28.7229 12.2481 28.2028 12.1311 27.4939C12.0234 26.9203 11.6104 26.4517 11.0549 26.2727C10.6023 26.1173 10.1598 25.934 9.72986 25.7238C9.21828 25.4622 8.60458 25.5013 8.13035 25.8257C7.55646 26.2384 6.7681 26.1745 6.26817 25.6748L4.32366 23.7303C3.80035 23.2069 3.73235 22.3819 4.16293 21.7799C4.495 21.2948 4.54283 20.6692 4.28838 20.1392C4.12073 19.771 3.97285 19.3941 3.84538 19.0102C3.66282 18.4051 3.15888 17.9518 2.53793 17.8341C1.7891 17.7144 1.23631 17.0713 1.23049 16.3129V13.8804C1.2265 13.0063 1.85782 12.2587 2.72023 12.1162C3.37447 11.9917 3.92077 11.5436 4.17077 10.9264C4.24526 10.7526 4.32366 10.5801 4.40599 10.4089C4.73849 9.76875 4.69256 8.99775 4.28642 8.40163C3.77851 7.69573 3.8565 6.72586 4.47068 6.11018L5.89966 4.6812C6.60444 3.97617 7.71598 3.88492 8.52631 4.46558L8.57139 4.49694C9.17648 4.9042 9.94643 4.97795 10.6178 4.69296C11.3361 4.43444 11.8654 3.81722 12.0115 3.06796L12.0311 3.00132C12.1925 2.00941 13.0491 1.28068 14.054 1.28027H15.779C16.8111 1.2798 17.6919 2.02627 17.8607 3.04444L17.8921 3.18166C18.0306 3.89943 18.5326 4.49344 19.2172 4.7498C19.8769 5.03299 20.6357 4.95904 21.2283 4.55379L21.3263 4.48322C22.1577 3.88407 23.3009 3.97622 24.0255 4.7008L25.3408 6.01805C25.9999 6.6809 26.0828 7.72327 25.5368 8.482C25.1091 9.11616 25.0544 9.93107 25.3937 10.6166L25.478 10.8127C25.7528 11.482 26.3471 11.9672 27.0579 12.1025C27.9868 12.2539 28.67 13.0548 28.6731 13.996V16.1777C28.6729 17.0076 28.0726 17.7156 27.2539 17.8517C26.5806 17.9808 26.0321 18.4684 25.825 19.1219C25.7335 19.3833 25.6316 19.6446 25.5192 19.906C25.2576 20.4802 25.3156 21.1494 25.6721 21.6701C26.1424 22.3245 26.0694 23.2232 25.4996 23.793L23.6746 25.6199C23.1527 26.1417 22.3298 26.2089 21.7301 25.7787C21.2296 25.4367 20.5812 25.399 20.0444 25.6807C19.6619 25.8701 19.2693 26.0383 18.8683 26.1845C18.3076 26.3779 17.8943 26.8578 17.7862 27.4409C17.672 28.1746 17.0429 28.7173 16.3004 28.7229H13.5797Z" stroke="white" stroke-width="1.52459" stroke-linecap="round" stroke-linejoin="round"/>
</svg>
