<svg width="72" height="72" viewBox="0 0 72 72" fill="none" xmlns="http://www.w3.org/2000/svg">
<g filter="url(#filter0_d_84_106289)">
<circle cx="36.3034" cy="36.2626" r="26.0359" fill="#262B23"/>
<path d="M36.3539 39.3165C41.6833 39.3165 45.9999 35.0754 45.9999 29.839C45.9999 24.6027 41.6833 20.3615 36.3539 20.3615C31.0245 20.3615 26.7079 24.6027 26.7079 29.839C26.7079 35.0754 31.0245 39.3165 36.3539 39.3165ZM36.3539 44.0553C29.9152 44.0553 20.2817 46.8486 19.1816 52.4096C19.1816 52.4096 25.7178 60.0096 36.5899 59.7254C47.462 59.4412 53.4703 52.2847 53.4703 52.2847C50.6092 45.7042 42.7926 44.0553 36.3539 44.0553Z" fill="#D9FF43"/>
</g>
<defs>
<filter id="filter0_d_84_106289" x="0.799991" y="0.759158" width="71.0065" height="71.0069" filterUnits="userSpaceOnUse" color-interpolation-filters="sRGB">
<feFlood flood-opacity="0" result="BackgroundImageFix"/>
<feColorMatrix in="SourceAlpha" type="matrix" values="0 0 0 0 0 0 0 0 0 0 0 0 0 0 0 0 0 0 127 0" result="hardAlpha"/>
<feOffset/>
<feGaussianBlur stdDeviation="4.73379"/>
<feComposite in2="hardAlpha" operator="out"/>
<feColorMatrix type="matrix" values="0 0 0 0 0 0 0 0 0 0 0 0 0 0 0 0 0 0 0.12 0"/>
<feBlend mode="normal" in2="BackgroundImageFix" result="effect1_dropShadow_84_106289"/>
<feBlend mode="normal" in="SourceGraphic" in2="effect1_dropShadow_84_106289" result="shape"/>
</filter>
</defs>
</svg>
